<?xml version="1.0" encoding="UTF-8" standalone="no"?>
<!-- Created with Inkscape (http://www.inkscape.org/) -->

<svg
   xmlns:dc="http://purl.org/dc/elements/1.1/"
   xmlns:cc="http://creativecommons.org/ns#"
   xmlns:rdf="http://www.w3.org/1999/02/22-rdf-syntax-ns#"
   xmlns:svg="http://www.w3.org/2000/svg"
   xmlns="http://www.w3.org/2000/svg"
   xmlns:sodipodi="http://sodipodi.sourceforge.net/DTD/sodipodi-0.dtd"
   xmlns:inkscape="http://www.inkscape.org/namespaces/inkscape"
   width="230"
   height="95"
   viewBox="0 0 60.854166 25.135418"
   version="1.1"
   id="svg3694"
   inkscape:version="0.92.3 (unknown)"
   sodipodi:docname="chat-wa-disc.svg">
  <defs
     id="defs3688" />
  <sodipodi:namedview
     id="base"
     pagecolor="#ffffff"
     bordercolor="#666666"
     borderopacity="1.0"
     inkscape:pageopacity="0.0"
     inkscape:pageshadow="2"
     inkscape:zoom="1.979899"
     inkscape:cx="67.011377"
     inkscape:cy="102.64177"
     inkscape:document-units="mm"
     inkscape:current-layer="layer1"
     showgrid="false"
     units="px"
     inkscape:window-width="1280"
     inkscape:window-height="747"
     inkscape:window-x="0"
     inkscape:window-y="25"
     inkscape:window-maximized="1" />
  <metadata
     id="metadata3691">
    <rdf:RDF>
      <cc:Work
         rdf:about="">
        <dc:format>image/svg+xml</dc:format>
        <dc:type
           rdf:resource="http://purl.org/dc/dcmitype/StillImage" />
        <dc:title></dc:title>
      </cc:Work>
    </rdf:RDF>
  </metadata>
  <g
     inkscape:label="Layer 1"
     inkscape:groupmode="layer"
     id="layer1"
     transform="translate(0,-271.86456)">
    <g
       id="g4357"
       transform="translate(-2.0172767,2.1700979)">
      <g
         transform="matrix(1.2443687,0,0,1.2443687,-101.03411,94.478439)"
         id="g2096"
         inkscape:export-filename="/media/eries/mywork/docs/PROJECTS/WEB_SRC/berkahmulya/public/img/chat-wa-disc.png"
         inkscape:export-xdpi="90"
         inkscape:export-ydpi="90">
        <path
           sodipodi:nodetypes="sscccccccssccccs"
           inkscape:connector-curvature="0"
           inkscape:export-ydpi="90"
           inkscape:export-xdpi="90"
           inkscape:export-filename="/media/eries/mywork/docs/PROJECTS/WEB_SRC/berkahmulya/public/img/chat-wa-disc.png"
           transform="scale(0.26458333)"
           id="path2076"
           d="m 322.74023,549.19922 c -3.878,0 -7,3.122 -7,7 v 24.07226 18.56836 7 h 7 19.28516 102.23438 7 13 c 3.878,0 7,-3.122 7,-7 v -42.64062 -7 h -27 -108.51954 z"
           style="opacity:1;fill:#d40000;fill-opacity:1;stroke:none;stroke-width:0.35890186;stroke-linecap:round;stroke-linejoin:round;stroke-miterlimit:4;stroke-dasharray:none;stroke-dashoffset:0" />
        <path
           inkscape:export-ydpi="90"
           inkscape:export-xdpi="90"
           inkscape:export-filename="/media/eries/mywork/docs/PROJECTS/WEB_SRC/berkahmulya/public/img/chat-wa-disc.png"
           style="fill:#ffffff;stroke-width:0.23585029"
           id="path2078"
           d="m 92.160236,149.7124 c -0.801892,-0.82547 -1.910388,-1.27359 -3.042469,-1.27359 -2.405673,0 -4.339645,1.95756 -4.316061,4.33965 0,0.75472 0.212266,1.48586 0.566041,2.14623 l -0.613211,2.24059 2.287748,-0.58963 c 0.636796,0.35377 1.344346,0.51887 2.051897,0.51887 v 0 c 2.382089,0 4.316061,-1.95756 4.316061,-4.33964 0,-1.15567 -0.448115,-2.24058 -1.250006,-3.04248 z m -3.042469,6.65098 v 0 c -0.636796,0 -1.273592,-0.1651 -1.816048,-0.49528 l -0.14151,-0.0708 -1.367931,0.35378 0.353775,-1.34435 -0.09434,-0.14151 c -1.03774,-1.67453 -0.542455,-3.89152 1.155668,-4.92927 1.698122,-1.03774 3.89153,-0.54245 4.92927,1.15567 1.037742,1.69812 0.542456,3.89153 -1.155666,4.92927 -0.542456,0.35378 -1.202836,0.54245 -1.863217,0.54245 z m 2.075482,-2.61793 -0.259435,-0.11793 c 0,0 -0.37736,-0.16509 -0.61321,-0.28302 -0.02359,0 -0.04717,-0.0236 -0.07075,-0.0236 -0.07076,0 -0.117926,0.0236 -0.165096,0.0472 v 0 c 0,0 -0.02359,0.0236 -0.353775,0.40095 -0.02359,0.0471 -0.07075,0.0708 -0.117925,0.0708 h -0.02359 c -0.02359,0 -0.07076,-0.0236 -0.09434,-0.0472 l -0.117926,-0.0471 v 0 c -0.259434,-0.11793 -0.495285,-0.25944 -0.683965,-0.44812 -0.04717,-0.0472 -0.117925,-0.0943 -0.165096,-0.14151 -0.165095,-0.1651 -0.33019,-0.35378 -0.448115,-0.56604 l -0.02359,-0.0472 c -0.02359,-0.0236 -0.02359,-0.0472 -0.04717,-0.0943 0,-0.0472 0,-0.0943 0.02359,-0.11793 0,0 0.09434,-0.11792 0.165096,-0.18868 0.04717,-0.0472 0.07075,-0.11792 0.117924,-0.1651 0.04717,-0.0708 0.07075,-0.16509 0.04717,-0.23584 -0.02359,-0.11793 -0.306605,-0.75473 -0.37736,-0.89624 -0.04717,-0.0708 -0.09434,-0.0943 -0.165096,-0.11792 h -0.07076 c -0.04717,0 -0.117925,0 -0.18868,0 -0.04717,0 -0.09434,0.0236 -0.14151,0.0236 l -0.02359,0.0236 c -0.04717,0.0236 -0.09434,0.0708 -0.14151,0.0943 -0.04717,0.0472 -0.07075,0.0943 -0.117924,0.14151 -0.165096,0.21227 -0.259436,0.4717 -0.259436,0.73114 v 0 c 0,0.18868 0.04717,0.37735 0.117925,0.54245 l 0.02359,0.0708 c 0.212265,0.44811 0.495286,0.84906 0.872646,1.20283 l 0.09434,0.0943 c 0.07075,0.0708 0.14151,0.11793 0.188679,0.18868 0.495286,0.42453 1.061327,0.73114 1.698122,0.89623 0.07075,0.0236 0.165096,0.0236 0.235851,0.0472 v 0 c 0.07075,0 0.165095,0 0.23585,0 0.117926,0 0.259436,-0.0472 0.353776,-0.0943 0.07075,-0.0472 0.117925,-0.0472 0.165095,-0.0943 l 0.04717,-0.0472 c 0.04717,-0.0471 0.09434,-0.0708 0.14151,-0.11792 0.04717,-0.0472 0.09434,-0.0943 0.117925,-0.14151 0.04717,-0.0943 0.07075,-0.21227 0.09434,-0.3302 0,-0.0471 0,-0.11792 0,-0.16509 0,0 -0.02359,-0.0236 -0.07075,-0.0472 z"
           class="logo_white"
           inkscape:connector-curvature="0" />
        <g
           transform="matrix(1.1907822,0,0,1.1907822,-22.348834,-29.788409)"
           id="text2082"
           style="font-style:normal;font-variant:normal;font-weight:normal;font-stretch:normal;font-size:2.77042818px;line-height:1.25;font-family:Ubuntu;-inkscape-font-specification:Ubuntu;letter-spacing:-1.18089497px;word-spacing:0px;fill:#ffffff;fill-opacity:1;stroke:none;stroke-width:0.0692607"
           aria-label="HUBUNGI  SEKARANG">
          <path
             inkscape:connector-curvature="0"
             id="path2239"
             style="font-style:normal;font-variant:normal;font-weight:bold;font-stretch:normal;font-family:Verdana;-inkscape-font-specification:'Verdana Bold';text-align:center;letter-spacing:0px;text-anchor:middle;fill:#ffffff;stroke-width:0.0692607"
             d="m 100.61991,151.1424 h -0.51946 v -0.8874 h -0.767005 v 0.8874 H 98.81399 v -2.01424 h 0.519455 v 0.73725 h 0.767005 v -0.73725 h 0.51946 z" />
          <path
             inkscape:connector-curvature="0"
             id="path2241"
             style="font-style:normal;font-variant:normal;font-weight:bold;font-stretch:normal;font-family:Verdana;-inkscape-font-specification:'Verdana Bold';text-align:center;letter-spacing:0px;text-anchor:middle;fill:#ffffff;stroke-width:0.0692607"
             d="m 102.89929,150.41327 q 0,0.37336 -0.22726,0.57221 -0.22726,0.19886 -0.66961,0.19886 -0.44235,0 -0.66961,-0.19886 -0.22591,-0.19885 -0.22591,-0.57086 v -1.28646 h 0.52216 v 1.2567 q 0,0.20968 0.0879,0.31249 0.0879,0.10281 0.28543,0.10281 0.19479,0 0.28407,-0.0988 0.0906,-0.0987 0.0906,-0.31654 v -1.2567 h 0.52216 z" />
          <path
             inkscape:connector-curvature="0"
             id="path2243"
             style="font-style:normal;font-variant:normal;font-weight:bold;font-stretch:normal;font-family:Verdana;-inkscape-font-specification:'Verdana Bold';text-align:center;letter-spacing:0px;text-anchor:middle;fill:#ffffff;stroke-width:0.0692607"
             d="m 105.10968,150.52555 q 0,0.14609 -0.0595,0.26108 -0.0582,0.11498 -0.16098,0.19074 -0.11904,0.0893 -0.26243,0.12715 -0.14204,0.0379 -0.36119,0.0379 h -0.87928 v -2.01424 h 0.78189 q 0.24349,0 0.35577,0.0162 0.11363,0.0162 0.22456,0.0717 0.11498,0.0582 0.17044,0.15692 0.0568,0.0974 0.0568,0.2232 0,0.1461 -0.0771,0.25837 -0.0771,0.11093 -0.21779,0.17316 v 0.0108 q 0.1975,0.0392 0.31248,0.16233 0.11634,0.1231 0.11634,0.32466 z m -0.66555,-0.82788 q 0,-0.0501 -0.0257,-0.10011 -0.0243,-0.05 -0.0879,-0.0744 -0.0568,-0.0216 -0.14204,-0.023 -0.0839,-0.003 -0.23673,-0.003 h -0.0487 v 0.42611 h 0.0812 q 0.1231,0 0.20968,-0.004 0.0866,-0.004 0.13663,-0.0271 0.0703,-0.0311 0.092,-0.0798 0.0217,-0.05 0.0217,-0.11498 z m 0.12716,0.81976 q 0,-0.096 -0.0379,-0.14745 -0.0365,-0.0528 -0.12581,-0.0785 -0.0609,-0.0176 -0.16774,-0.0189 -0.10686,-0.001 -0.2232,-0.001 h -0.11363 v 0.50187 h 0.0379 q 0.21915,0 0.31384,-0.001 0.0947,-0.001 0.17451,-0.0352 0.0812,-0.0338 0.11092,-0.0893 0.0311,-0.0568 0.0311,-0.12986 z" />
          <path
             inkscape:connector-curvature="0"
             id="path2245"
             style="font-style:normal;font-variant:normal;font-weight:bold;font-stretch:normal;font-family:Verdana;-inkscape-font-specification:'Verdana Bold';text-align:center;letter-spacing:0px;text-anchor:middle;fill:#ffffff;stroke-width:0.0692607"
             d="m 107.26055,150.41327 q 0,0.37336 -0.22726,0.57221 -0.22726,0.19886 -0.66961,0.19886 -0.44235,0 -0.66961,-0.19886 -0.22591,-0.19885 -0.22591,-0.57086 v -1.28646 h 0.52216 v 1.2567 q 0,0.20968 0.0879,0.31249 0.0879,0.10281 0.28543,0.10281 0.19479,0 0.28407,-0.0988 0.0906,-0.0987 0.0906,-0.31654 v -1.2567 h 0.52216 z" />
          <path
             inkscape:connector-curvature="0"
             id="path2247"
             style="font-style:normal;font-variant:normal;font-weight:bold;font-stretch:normal;font-family:Verdana;-inkscape-font-specification:'Verdana Bold';text-align:center;letter-spacing:0px;text-anchor:middle;fill:#ffffff;stroke-width:0.0692607"
             d="m 109.57916,151.1424 h -0.50052 l -0.85493,-1.38251 v 1.38251 h -0.47617 v -2.01424 h 0.62091 l 0.73454,1.15389 v -1.15389 h 0.47617 z" />
          <path
             inkscape:connector-curvature="0"
             id="path2249"
             style="font-style:normal;font-variant:normal;font-weight:bold;font-stretch:normal;font-family:Verdana;-inkscape-font-specification:'Verdana Bold';text-align:center;letter-spacing:0px;text-anchor:middle;fill:#ffffff;stroke-width:0.0692607"
             d="m 111.87748,151.02742 q -0.13528,0.0528 -0.35848,0.10551 -0.2232,0.0514 -0.44505,0.0514 -0.51405,0 -0.80489,-0.27867 -0.29084,-0.28002 -0.29084,-0.77242 0,-0.4694 0.29355,-0.75619 0.29354,-0.28813 0.81841,-0.28813 0.19885,0 0.37877,0.0365 0.17991,0.0352 0.40041,0.14204 v 0.47211 h -0.0582 q -0.0379,-0.0284 -0.11092,-0.0798 -0.0731,-0.0528 -0.14069,-0.0893 -0.0785,-0.0433 -0.18397,-0.0744 -0.10416,-0.0311 -0.22185,-0.0311 -0.13798,0 -0.25026,0.0406 -0.11228,0.0406 -0.20156,0.12445 -0.0852,0.0812 -0.13527,0.20697 -0.0487,0.12445 -0.0487,0.28813 0,0.33413 0.17721,0.51134 0.17721,0.17721 0.52351,0.17721 0.0298,0 0.0649,-0.001 0.0365,-0.001 0.0663,-0.004 v -0.395 h -0.40177 v -0.38012 h 0.92934 z" />
          <path
             inkscape:connector-curvature="0"
             id="path2251"
             style="font-style:normal;font-variant:normal;font-weight:bold;font-stretch:normal;font-family:Verdana;-inkscape-font-specification:'Verdana Bold';text-align:center;letter-spacing:0px;text-anchor:middle;fill:#ffffff;stroke-width:0.0692607"
             d="m 113.43043,151.1424 h -1.17959 v -0.35712 h 0.33007 v -1.3 h -0.33007 v -0.35712 h 1.17959 v 0.35712 h -0.33007 v 1.3 h 0.33007 z" />
          <path
             inkscape:connector-curvature="0"
             id="path2253"
             style="font-style:normal;font-variant:normal;font-weight:bold;font-stretch:normal;font-family:Verdana;-inkscape-font-specification:'Verdana Bold';text-align:center;letter-spacing:0px;text-anchor:middle;fill:#ffffff;stroke-width:0.0692607"
             d="m 99.411904,152.96987 q 0,0.2976 -0.252964,0.48428 -0.251611,0.18533 -0.68449,0.18533 -0.250259,0 -0.436938,-0.0433 -0.185326,-0.0446 -0.347656,-0.11228 v -0.48293 h 0.05682 q 0.160977,0.12851 0.359831,0.1975 0.200207,0.069 0.384181,0.069 0.04735,0 0.124453,-0.008 0.07711,-0.008 0.125805,-0.0271 0.05952,-0.0243 0.0974,-0.0609 0.03923,-0.0365 0.03923,-0.10822 0,-0.0663 -0.05682,-0.11363 -0.05546,-0.0487 -0.163682,-0.0744 -0.113631,-0.0271 -0.240789,-0.05 -0.125806,-0.0243 -0.236731,-0.0609 -0.254317,-0.0825 -0.366595,-0.2232 -0.110925,-0.14204 -0.110925,-0.35172 0,-0.28137 0.251611,-0.45858 0.252964,-0.17856 0.649319,-0.17856 0.198854,0 0.392297,0.0392 0.194796,0.0379 0.336834,0.096 v 0.46399 h -0.05546 q -0.121747,-0.0974 -0.298957,-0.16233 -0.175857,-0.0663 -0.359831,-0.0663 -0.06493,0 -0.129864,0.009 -0.06358,0.008 -0.1231,0.0325 -0.05276,0.0203 -0.09063,0.0622 -0.03788,0.0406 -0.03788,0.0933 0,0.0798 0.06087,0.1231 0.06087,0.0419 0.229967,0.0771 0.110925,0.023 0.212381,0.0446 0.102809,0.0216 0.220498,0.0595 0.23132,0.0757 0.340893,0.20697 0.110925,0.12986 0.110925,0.33819 z" />
          <path
             inkscape:connector-curvature="0"
             id="path2255"
             style="font-style:normal;font-variant:normal;font-weight:bold;font-stretch:normal;font-family:Verdana;-inkscape-font-specification:'Verdana Bold';text-align:center;letter-spacing:0px;text-anchor:middle;fill:#ffffff;stroke-width:0.0692607"
             d="m 101.22594,153.60295 h -1.45691 v -2.01424 h 1.45691 v 0.38959 h -0.94016 v 0.34766 h 0.87252 v 0.38959 h -0.87252 v 0.49781 h 0.94016 z" />
          <path
             inkscape:connector-curvature="0"
             id="path2257"
             style="font-style:normal;font-variant:normal;font-weight:bold;font-stretch:normal;font-family:Verdana;-inkscape-font-specification:'Verdana Bold';text-align:center;letter-spacing:0px;text-anchor:middle;fill:#ffffff;stroke-width:0.0692607"
             d="m 103.5432,153.60295 h -0.63715 l -0.60197,-0.80623 -0.12175,0.14744 v 0.65879 h -0.51945 v -2.01424 h 0.51945 v 0.91175 l 0.71966,-0.91175 h 0.60198 l -0.7873,0.93204 z" />
          <path
             inkscape:connector-curvature="0"
             id="path2259"
             style="font-style:normal;font-variant:normal;font-weight:bold;font-stretch:normal;font-family:Verdana;-inkscape-font-specification:'Verdana Bold';text-align:center;letter-spacing:0px;text-anchor:middle;fill:#ffffff;stroke-width:0.0692607"
             d="m 105.6616,153.60295 h -0.53704 l -0.13933,-0.40717 h -0.74672 l -0.13933,0.40717 h -0.52352 l 0.74401,-2.01424 h 0.59792 z m -0.80218,-0.77647 -0.24755,-0.72237 -0.24755,0.72237 z" />
          <path
             inkscape:connector-curvature="0"
             id="path2261"
             style="font-style:normal;font-variant:normal;font-weight:bold;font-stretch:normal;font-family:Verdana;-inkscape-font-specification:'Verdana Bold';text-align:center;letter-spacing:0px;text-anchor:middle;fill:#ffffff;stroke-width:0.0692607"
             d="m 107.08334,152.20556 q 0,-0.0757 -0.0311,-0.12986 -0.0311,-0.0541 -0.10687,-0.0852 -0.0528,-0.0216 -0.1231,-0.0257 -0.0703,-0.005 -0.16368,-0.005 h -0.18804 v 0.54246 h 0.15963 q 0.12445,0 0.20832,-0.0122 0.0839,-0.0122 0.14069,-0.0555 0.0541,-0.0419 0.0785,-0.092 0.0257,-0.0514 0.0257,-0.13663 z m 0.81029,1.39739 h -0.63443 l -0.54922,-0.7386 h -0.23944 v 0.7386 h -0.51675 v -2.01424 h 0.87117 q 0.17857,0 0.30708,0.0203 0.12851,0.0203 0.24079,0.0879 0.11363,0.0676 0.17991,0.17586 0.0676,0.10687 0.0676,0.26919 0,0.22321 -0.10416,0.36389 -0.10281,0.14069 -0.2949,0.23403 z" />
          <path
             inkscape:connector-curvature="0"
             id="path2263"
             style="font-style:normal;font-variant:normal;font-weight:bold;font-stretch:normal;font-family:Verdana;-inkscape-font-specification:'Verdana Bold';text-align:center;letter-spacing:0px;text-anchor:middle;fill:#ffffff;stroke-width:0.0692607"
             d="m 109.98498,153.60295 h -0.53704 l -0.13933,-0.40717 h -0.74672 l -0.13933,0.40717 h -0.52351 l 0.74401,-2.01424 h 0.59791 z m -0.80218,-0.77647 -0.24755,-0.72237 -0.24755,0.72237 z" />
          <path
             inkscape:connector-curvature="0"
             id="path2265"
             style="font-style:normal;font-variant:normal;font-weight:bold;font-stretch:normal;font-family:Verdana;-inkscape-font-specification:'Verdana Bold';text-align:center;letter-spacing:0px;text-anchor:middle;fill:#ffffff;stroke-width:0.0692607"
             d="m 112.1088,153.60295 h -0.50052 l -0.85494,-1.38251 v 1.38251 h -0.47616 v -2.01424 h 0.62091 l 0.73454,1.1539 v -1.1539 h 0.47617 z" />
          <path
             inkscape:connector-curvature="0"
             id="path2267"
             style="font-style:normal;font-variant:normal;font-weight:bold;font-stretch:normal;font-family:Verdana;-inkscape-font-specification:'Verdana Bold';text-align:center;letter-spacing:0px;text-anchor:middle;fill:#ffffff;stroke-width:0.0692607"
             d="m 114.40712,153.48797 q -0.13528,0.0528 -0.35848,0.10551 -0.2232,0.0514 -0.44506,0.0514 -0.51404,0 -0.80488,-0.27867 -0.29084,-0.28002 -0.29084,-0.77242 0,-0.4694 0.29355,-0.75618 0.29354,-0.28814 0.81841,-0.28814 0.19885,0 0.37877,0.0365 0.17991,0.0352 0.40041,0.14203 v 0.47211 h -0.0582 q -0.0379,-0.0284 -0.11092,-0.0798 -0.0731,-0.0528 -0.14069,-0.0893 -0.0785,-0.0433 -0.18397,-0.0744 -0.10416,-0.0311 -0.22185,-0.0311 -0.13798,0 -0.25026,0.0406 -0.11228,0.0406 -0.20156,0.12445 -0.0852,0.0812 -0.13528,0.20697 -0.0487,0.12445 -0.0487,0.28814 0,0.33413 0.17721,0.51134 0.17721,0.17721 0.52351,0.17721 0.0298,0 0.0649,-0.001 0.0365,-0.001 0.0663,-0.004 v -0.395 h -0.40177 v -0.38012 h 0.92934 z" />
        </g>
        <g
           transform="matrix(1.1907822,0,0,1.1907822,-22.348571,-29.078722)"
           id="g2237">
          <g
             aria-label="KLIK DISINI"
             style="font-style:normal;font-variant:normal;font-weight:normal;font-stretch:normal;font-size:1.73697126px;line-height:1.25;font-family:Ubuntu;-inkscape-font-specification:Ubuntu;letter-spacing:-0.74038404px;word-spacing:0px;fill:#ffffff;fill-opacity:1;stroke:none;stroke-width:0.04342428"
             id="text2086">
            <path
               inkscape:connector-curvature="0"
               d="m 104.99299,155.34438 h -0.39947 l -0.37741,-0.50549 -0.0763,0.0925 v 0.41304 h -0.32568 v -1.26287 h 0.32568 v 0.57164 l 0.45121,-0.57164 h 0.37742 l -0.49361,0.58436 z"
               style="font-style:normal;font-variant:normal;font-weight:bold;font-stretch:normal;font-family:Verdana;-inkscape-font-specification:'Verdana Bold';text-align:center;letter-spacing:0px;text-anchor:middle;fill:#ffffff;stroke-width:0.04342428"
               id="path2204" />
            <path
               inkscape:connector-curvature="0"
               d="m 106.06503,155.34438 h -0.91089 v -1.26287 h 0.32568 v 1.0186 h 0.58521 z"
               style="font-style:normal;font-variant:normal;font-weight:bold;font-stretch:normal;font-family:Verdana;-inkscape-font-specification:'Verdana Bold';text-align:center;letter-spacing:0px;text-anchor:middle;fill:#ffffff;stroke-width:0.04342428"
               id="path2206" />
            <path
               inkscape:connector-curvature="0"
               d="m 106.94285,155.34438 h -0.73957 v -0.22391 h 0.20694 v -0.81505 h -0.20694 v -0.22391 h 0.73957 v 0.22391 h -0.20695 v 0.81505 h 0.20695 z"
               style="font-style:normal;font-variant:normal;font-weight:bold;font-stretch:normal;font-family:Verdana;-inkscape-font-specification:'Verdana Bold';text-align:center;letter-spacing:0px;text-anchor:middle;fill:#ffffff;stroke-width:0.04342428"
               id="path2208" />
            <path
               inkscape:connector-curvature="0"
               d="m 108.38891,155.34438 h -0.39947 l -0.37742,-0.50549 -0.0763,0.0925 v 0.41304 h -0.32568 v -1.26287 h 0.32568 v 0.57164 l 0.4512,-0.57164 h 0.37742 l -0.49361,0.58436 z"
               style="font-style:normal;font-variant:normal;font-weight:bold;font-stretch:normal;font-family:Verdana;-inkscape-font-specification:'Verdana Bold';text-align:center;letter-spacing:0px;text-anchor:middle;fill:#ffffff;stroke-width:0.04342428"
               id="path2210" />
            <path
               d="m 103.87601,156.39128 q 0,0.17641 -0.0806,0.31635 -0.0806,0.1391 -0.20355,0.21373 -0.0924,0.056 -0.2027,0.078 -0.11026,0.0221 -0.26123,0.0221 h -0.44526 v -1.26287 h 0.45799 q 0.15436,0 0.26631,0.0263 0.11195,0.0254 0.18828,0.0729 0.13062,0.0797 0.20525,0.21542 0.0755,0.13485 0.0755,0.31805 z m -0.33671,-0.003 q 0,-0.12467 -0.0458,-0.21288 -0.045,-0.089 -0.14334,-0.13909 -0.05,-0.0246 -0.10262,-0.0331 -0.0517,-0.009 -0.1569,-0.009 h -0.0823 v 0.79046 h 0.0823 q 0.11619,0 0.17047,-0.0102 0.0543,-0.011 0.10602,-0.039 0.0891,-0.0509 0.13061,-0.1357 0.0416,-0.0857 0.0416,-0.21119 z"
               style="font-style:normal;font-variant:normal;font-weight:bold;font-stretch:normal;font-family:Verdana;-inkscape-font-specification:'Verdana Bold';text-align:center;letter-spacing:0px;text-anchor:middle;fill:#ffffff;stroke-width:0.04342428"
               id="path2212"
               inkscape:connector-curvature="0" />
            <path
               d="m 104.80725,157.02144 h -0.73957 v -0.22391 h 0.20695 v -0.81505 h -0.20695 v -0.22391 h 0.73957 v 0.22391 h -0.20694 v 0.81505 h 0.20694 z"
               style="font-style:normal;font-variant:normal;font-weight:bold;font-stretch:normal;font-family:Verdana;-inkscape-font-specification:'Verdana Bold';text-align:center;letter-spacing:0px;text-anchor:middle;fill:#ffffff;stroke-width:0.04342428"
               id="path2214"
               inkscape:connector-curvature="0" />
            <path
               d="m 106.08539,156.62452 q 0,0.18658 -0.15861,0.30363 -0.15775,0.11619 -0.42915,0.11619 -0.1569,0 -0.27395,-0.0271 -0.11619,-0.028 -0.21796,-0.0704 v -0.30278 h 0.0356 q 0.10092,0.0806 0.2256,0.12383 0.12552,0.0433 0.24087,0.0433 0.0297,0 0.078,-0.005 0.0483,-0.005 0.0789,-0.017 0.0373,-0.0153 0.0611,-0.0382 0.0246,-0.0229 0.0246,-0.0678 0,-0.0416 -0.0356,-0.0712 -0.0348,-0.0305 -0.10262,-0.0466 -0.0712,-0.017 -0.15097,-0.0314 -0.0789,-0.0153 -0.14842,-0.0382 -0.15945,-0.0517 -0.22984,-0.13994 -0.0695,-0.0891 -0.0695,-0.22052 0,-0.17641 0.15775,-0.28751 0.1586,-0.11196 0.4071,-0.11196 0.12468,0 0.24596,0.0246 0.12213,0.0237 0.21119,0.0602 v 0.29091 h -0.0348 q -0.0763,-0.0611 -0.18743,-0.10178 -0.11026,-0.0416 -0.22561,-0.0416 -0.0407,0 -0.0814,0.006 -0.0399,0.005 -0.0772,0.0203 -0.0331,0.0127 -0.0568,0.039 -0.0238,0.0254 -0.0238,0.0585 0,0.05 0.0382,0.0772 0.0382,0.0263 0.14418,0.0483 0.0695,0.0144 0.13315,0.028 0.0645,0.0136 0.13825,0.0373 0.14503,0.0475 0.21373,0.12976 0.0696,0.0814 0.0696,0.21204 z"
               style="font-style:normal;font-variant:normal;font-weight:bold;font-stretch:normal;font-family:Verdana;-inkscape-font-specification:'Verdana Bold';text-align:center;letter-spacing:0px;text-anchor:middle;fill:#ffffff;stroke-width:0.04342428"
               id="path2216"
               inkscape:connector-curvature="0" />
            <path
               d="m 106.99204,157.02144 h -0.73957 v -0.22391 h 0.20694 v -0.81505 h -0.20694 v -0.22391 h 0.73957 v 0.22391 h -0.20695 v 0.81505 h 0.20695 z"
               style="font-style:normal;font-variant:normal;font-weight:bold;font-stretch:normal;font-family:Verdana;-inkscape-font-specification:'Verdana Bold';text-align:center;letter-spacing:0px;text-anchor:middle;fill:#ffffff;stroke-width:0.04342428"
               id="path2218"
               inkscape:connector-curvature="0" />
            <path
               d="m 108.40757,157.02144 h -0.31381 l -0.53602,-0.86679 v 0.86679 h -0.29854 v -1.26287 h 0.38929 l 0.46053,0.72346 v -0.72346 h 0.29855 z"
               style="font-style:normal;font-variant:normal;font-weight:bold;font-stretch:normal;font-family:Verdana;-inkscape-font-specification:'Verdana Bold';text-align:center;letter-spacing:0px;text-anchor:middle;fill:#ffffff;stroke-width:0.04342428"
               id="path2220"
               inkscape:connector-curvature="0" />
            <path
               d="m 109.4143,157.02144 h -0.73957 v -0.22391 h 0.20694 v -0.81505 h -0.20694 v -0.22391 h 0.73957 v 0.22391 h -0.20695 v 0.81505 h 0.20695 z"
               style="font-style:normal;font-variant:normal;font-weight:bold;font-stretch:normal;font-family:Verdana;-inkscape-font-specification:'Verdana Bold';text-align:center;letter-spacing:0px;text-anchor:middle;fill:#ffffff;stroke-width:0.04342428"
               id="path2222"
               inkscape:connector-curvature="0" />
          </g>
          <path
             inkscape:connector-curvature="0"
             style="opacity:1;fill:#ffffff;fill-opacity:1;stroke:none;stroke-width:0.18333136;stroke-linecap:round;stroke-linejoin:round;stroke-miterlimit:4;stroke-dasharray:none;stroke-dashoffset:0"
             d="m 650.04297,744.79883 v 1.45898 h 16.68164 v -1.45898 z m 46.50391,0 v 1.45898 h 16.67968 v -1.45898 z"
             id="rect2119"
             transform="matrix(0.26458333,0,0,0.26458333,-74.300929,-41.426777)" />
        </g>
      </g>
      <path
         transform="matrix(0.72967149,0.24384547,-0.24384547,0.72967149,-28.26149,136.26347)"
         inkscape:export-ydpi="90"
         inkscape:export-xdpi="90"
         inkscape:export-filename="/media/eries/mywork/docs/PROJECTS/WEB_SRC/berkahmulya/public/img/chat-wa-disc.png"
         inkscape:transform-center-y="-4.5018939e-06"
         inkscape:transform-center-x="2.8777385e-06"
         d="m 170.31058,154.07196 -6.00255,0.0916 -0.71853,5.9601 -4.91,-3.45411 -4.08456,4.39948 -1.942,-5.68047 -5.89043,1.15841 1.76779,-5.73707 -5.44636,-2.52513 4.80234,-3.60231 -2.92196,-5.24416 6.00255,-0.0916 0.71853,-5.9601 4.91,3.45412 4.08456,-4.39948 1.942,5.68046 5.89043,-1.15841 -1.76778,5.73707 5.44635,2.52513 -4.80233,3.60231 z"
         inkscape:randomized="0"
         inkscape:rounded="0"
         inkscape:flatsided="false"
         sodipodi:arg2="0.83775805"
         sodipodi:arg1="0.52359878"
         sodipodi:r2="9.9690228"
         sodipodi:r1="14.633672"
         sodipodi:cy="146.75513"
         sodipodi:cx="157.63745"
         sodipodi:sides="10"
         id="path2015"
         style="opacity:1;fill:#ffff00;fill-opacity:1;stroke:none;stroke-width:0.21041149;stroke-linecap:round;stroke-linejoin:round;stroke-miterlimit:4;stroke-dasharray:none;stroke-dashoffset:0"
         sodipodi:type="star" />
      <text
         transform="rotate(18.478869)"
         inkscape:export-ydpi="90"
         inkscape:export-xdpi="90"
         inkscape:export-filename="/media/eries/mywork/docs/PROJECTS/WEB_SRC/berkahmulya/public/img/chat-wa-disc.png"
         id="text2019"
         y="253.63647"
         x="137.96529"
         style="font-style:normal;font-variant:normal;font-weight:normal;font-stretch:normal;font-size:7.63617134px;line-height:1.25;font-family:Ubuntu;-inkscape-font-specification:Ubuntu;letter-spacing:-3.25491858px;word-spacing:0px;fill:#d40000;fill-opacity:1;stroke:none;stroke-width:0.1909043"
         xml:space="preserve"><tspan
           id="tspan2017"
           style="text-align:center;letter-spacing:0px;text-anchor:middle;fill:#d40000;stroke-width:0.1909043"
           y="253.63647"
           x="137.96529"
           sodipodi:role="line">25<tspan
   id="tspan2292"
   style="font-size:3.52777767px;stroke-width:0.1909043">%</tspan></tspan></text>
      <text
         transform="rotate(18.478869)"
         inkscape:export-ydpi="90"
         inkscape:export-xdpi="90"
         inkscape:export-filename="/media/eries/mywork/docs/PROJECTS/WEB_SRC/berkahmulya/public/img/chat-wa-disc.png"
         xml:space="preserve"
         style="font-style:normal;font-variant:normal;font-weight:normal;font-stretch:normal;font-size:2.81384611px;line-height:1.25;font-family:Ubuntu;-inkscape-font-specification:Ubuntu;letter-spacing:-1.19940174px;word-spacing:0px;fill:#d40000;fill-opacity:1;stroke:none;stroke-width:0.07034615"
         x="137.40073"
         y="247.77852"
         id="text2023"><tspan
           sodipodi:role="line"
           x="137.40073"
           y="247.77852"
           style="text-align:center;letter-spacing:0px;text-anchor:middle;fill:#d40000;stroke-width:0.07034615"
           id="tspan2021">Disc</tspan></text>
    </g>
  </g>
</svg>
