<?xml version="1.0" encoding="UTF-8" standalone="no"?>
<svg
   xmlns:dc="http://purl.org/dc/elements/1.1/"
   xmlns:cc="http://creativecommons.org/ns#"
   xmlns:rdf="http://www.w3.org/1999/02/22-rdf-syntax-ns#"
   xmlns:svg="http://www.w3.org/2000/svg"
   xmlns="http://www.w3.org/2000/svg"
   xmlns:xlink="http://www.w3.org/1999/xlink"
   xmlns:sodipodi="http://sodipodi.sourceforge.net/DTD/sodipodi-0.dtd"
   xmlns:inkscape="http://www.inkscape.org/namespaces/inkscape"
   id="813c2686-e70f-4fb0-bf6b-a2eb7b1db384"
   data-name="Layer 1"
   width="1121.04"
   height="851.8"
   viewBox="0 0 1121.04 851.8"
   version="1.1"
   sodipodi:docname="intro-img.svg"
   inkscape:version="0.92.3 (unknown)">
  <metadata
     id="metadata3475">
    <rdf:RDF>
      <cc:Work
         rdf:about="">
        <dc:format>image/svg+xml</dc:format>
        <dc:type
           rdf:resource="http://purl.org/dc/dcmitype/StillImage" />
      </cc:Work>
    </rdf:RDF>
  </metadata>
  <sodipodi:namedview
     pagecolor="#ffffff"
     bordercolor="#666666"
     borderopacity="1"
     objecttolerance="10"
     gridtolerance="10"
     guidetolerance="10"
     inkscape:pageopacity="0"
     inkscape:pageshadow="2"
     inkscape:window-width="1280"
     inkscape:window-height="747"
     id="namedview3473"
     showgrid="false"
     inkscape:zoom="0.783645"
     inkscape:cx="521.52259"
     inkscape:cy="469.76383"
     inkscape:window-x="0"
     inkscape:window-y="25"
     inkscape:window-maximized="1"
     inkscape:current-layer="813c2686-e70f-4fb0-bf6b-a2eb7b1db384"
     inkscape:snap-global="false" />
  <defs
     id="defs2360">
    <linearGradient
       id="a631a87a-781e-44c6-95a9-52fd0c67a2fa"
       x1="590.32"
       y1="444.05"
       x2="590.32"
       y2="24.1"
       gradientTransform="matrix(-1, 0, 0, 1, 852.2, 0)"
       gradientUnits="userSpaceOnUse">
      <stop
         offset="0"
         stop-color="gray"
         stop-opacity="0.25"
         id="stop2352" />
      <stop
         offset="0.54"
         stop-color="gray"
         stop-opacity="0.12"
         id="stop2354" />
      <stop
         offset="1"
         stop-color="gray"
         stop-opacity="0.1"
         id="stop2356" />
    </linearGradient>
    <linearGradient
       id="a15ea5fa-8dd7-4ce2-ac3d-c62a3c4696f0"
       x1="493.3"
       y1="875.74"
       x2="493.3"
       y2="319.35"
       gradientTransform="matrix(1, 0, 0, 1, 0, 0)"
       xlink:href="#a631a87a-781e-44c6-95a9-52fd0c67a2fa" />
  </defs>
  <title
     id="title2362">interaction design</title>
  <g
     id="g1009"
     transform="matrix(1.2309446,0,0,1.2309446,1000.5464,111.95961)">
    <path
       sodipodi:nodetypes="ccccccccc"
       inkscape:connector-curvature="0"
       id="path1172-3"
       d="m -108.08364,86.824202 h 95.771748 c 17.9287599,0 27.47274,10.408781 32.52949,23.050658 l 20.95116,52.37779 c 1.61912,2.80441 1.95145,7.22457 1.95145,11.39736 v 95.0016 H -117.49417 l 0.96178,-173.122967 c -0.0771,-5.128403 5.41421,-8.704441 8.44875,-8.704441 z"
       style="opacity:1;fill:#fbd734;fill-opacity:1;stroke:none;stroke-width:0.99999994px;stroke-linecap:butt;stroke-linejoin:miter;stroke-opacity:1" />
    <path
       id="path1172"
       d="m 36.986148,214.33104 c -5.49865,0 -9.92578,3.3728 -9.92578,7.5605 v 17.2032 c 0,4.1877 4.42714,7.5586 9.92578,7.5586 h 5.8125 v -32.3223 z"
       style="fill:#ebedef;fill-opacity:1;stroke:none;stroke-width:0.99999994px;stroke-linecap:butt;stroke-linejoin:miter;stroke-opacity:1"
       inkscape:connector-curvature="0" />
    <path
       id="rect1076"
       d="m -440.03143,54.756842 v 0.029 a 27.021582,80.180847 0 0 0 -26.75,80.150398 27.021582,80.180847 0 0 0 26.75,80.1406 v 0.041 h 0.27148 279.57031 v -0.1055 a 27.021582,80.180847 0 0 0 0.70703,0.1055 27.021582,80.180847 0 0 0 27.02149,-80.1816 27.021582,80.180847 0 0 0 -27.02149,-80.179698 27.021582,80.180847 0 0 0 -0.70703,0.074 v -0.074 h -279.57031 z"
       style="opacity:1;fill:#cdd7db;fill-opacity:1;stroke:none;stroke-width:0.3689214;stroke-linecap:round;stroke-linejoin:round;stroke-miterlimit:4;stroke-dasharray:none;stroke-dashoffset:0"
       inkscape:connector-curvature="0" />
    <rect
       y="214.73932"
       x="-437.02295"
       height="63.63961"
       width="271.47852"
       id="rect1128"
       style="opacity:1;fill:#445a64;fill-opacity:1;stroke:none;stroke-width:0.59969139;stroke-linecap:round;stroke-linejoin:round;stroke-miterlimit:4;stroke-dasharray:none;stroke-dashoffset:0" />
    <path
       id="path1098"
       d="m -466.73456,137.72554 a 27.021582,80.180846 0 0 0 26.70313,77.3516 v 0.041 h 0.27148 279.57031 v -0.1055 a 27.021582,80.180846 0 0 0 0.70703,0.1055 27.021582,80.180846 0 0 0 26.98828,-77.3926 z"
       style="opacity:1;fill:#afbdc3;fill-opacity:1;stroke:none;stroke-width:0.3689214;stroke-linecap:round;stroke-linejoin:round;stroke-miterlimit:4;stroke-dasharray:none;stroke-dashoffset:0"
       inkscape:connector-curvature="0" />
    <rect
       ry="5.6692915"
       rx="5.6692915"
       y="38.867638"
       x="-388.76135"
       height="24.107143"
       width="64.107147"
       id="rect1103"
       style="opacity:1;fill:#8fa3ad;fill-opacity:1;stroke:none;stroke-width:0.46812633;stroke-linecap:round;stroke-linejoin:round;stroke-miterlimit:4;stroke-dasharray:none;stroke-dashoffset:0" />
    <rect
       style="opacity:1;fill:#8fa3ad;fill-opacity:1;stroke:none;stroke-width:0.46812633;stroke-linecap:round;stroke-linejoin:round;stroke-miterlimit:4;stroke-dasharray:none;stroke-dashoffset:0"
       id="rect1105"
       width="64.107147"
       height="24.107143"
       x="-277.29706"
       y="38.867638"
       rx="5.6692915"
       ry="5.6692915" />
    <rect
       style="opacity:1;fill:#445a64;fill-opacity:1;stroke:none;stroke-width:0.58115292;stroke-linecap:round;stroke-linejoin:round;stroke-miterlimit:4;stroke-dasharray:none;stroke-dashoffset:0"
       id="rect1140"
       width="338.14856"
       height="47.982246"
       x="-437.02295"
       y="230.39677" />
    <g
       id="g1113"
       transform="matrix(3.7795276,0,0,3.7795276,-464.29706,-2071.2237)">
      <circle
         r="12.780777"
         cy="621.85297"
         cx="28.499405"
         id="circle1109"
         style="opacity:1;fill:#546e7a;fill-opacity:1;stroke:none;stroke-width:0.15028316;stroke-linecap:round;stroke-linejoin:round;stroke-miterlimit:4;stroke-dasharray:none;stroke-dashoffset:0" />
      <circle
         style="opacity:1;fill:#afbdc3;fill-opacity:1;stroke:none;stroke-width:0.1;stroke-linecap:round;stroke-linejoin:round;stroke-miterlimit:4;stroke-dasharray:none;stroke-dashoffset:0"
         id="path1107"
         cx="28.499405"
         cy="621.85297"
         r="8.5044641" />
    </g>
    <g
       style="opacity:1"
       transform="matrix(3.7795276,0,0,3.7795276,-368.29707,-2071.2237)"
       id="g1120">
      <circle
         style="opacity:1;fill:#546e7a;fill-opacity:1;stroke:none;stroke-width:0.15028316;stroke-linecap:round;stroke-linejoin:round;stroke-miterlimit:4;stroke-dasharray:none;stroke-dashoffset:0"
         id="circle1115"
         cx="28.499405"
         cy="621.85297"
         r="12.780777" />
      <circle
         r="8.5044641"
         cy="621.85297"
         cx="28.499405"
         id="circle1117"
         style="opacity:1;fill:#afbdc3;fill-opacity:1;stroke:none;stroke-width:0.1;stroke-linecap:round;stroke-linejoin:round;stroke-miterlimit:4;stroke-dasharray:none;stroke-dashoffset:0" />
    </g>
    <path
       id="path1130"
       d="m -435.04901,215.04584 a 13.965741,17.589288 0 0 0 -1.97461,0.1993 v 34.7832 a 13.965741,17.589288 0 0 0 1.97461,0.1953 13.965741,17.589288 0 0 0 6.10937,-1.7852 h 7.85743 v -15.8027 -0.9824 h -0.0273 a 13.965741,17.589288 0 0 0 -13.93946,-16.6075 z"
       style="opacity:1;fill:#e54a18;fill-opacity:1;stroke:none;stroke-width:0.37510303;stroke-linecap:round;stroke-linejoin:round;stroke-miterlimit:4;stroke-dasharray:none;stroke-dashoffset:0"
       inkscape:connector-curvature="0" />
    <rect
       ry="7.5590553"
       rx="7.5590553"
       style="opacity:1;fill:#546e7a;fill-opacity:1;stroke:none;stroke-width:0.14293432;stroke-linecap:round;stroke-linejoin:round;stroke-miterlimit:4;stroke-dasharray:none;stroke-dashoffset:0"
       id="rect1138"
       width="31.342365"
       height="31.31473"
       x="-452.93283"
       y="247.06416" />
    <path
       id="rect1157"
       d="m -9.5353321,262.36814 c -8.3754299,0 -15.1191499,6.7418 -15.1191499,15.1172 v 1.5508 c 0,8.3754 6.74372,15.1172 15.1191499,15.1172 H 27.728338 c 8.37542,0 15.11718,-6.7418 15.11718,-15.1172 v -0.92 -0.6308 -15.1172 h -15.11718 -7.10548 z"
       style="opacity:1;fill:#546e7a;fill-opacity:1;stroke:none;stroke-width:0.36202183;stroke-linecap:round;stroke-linejoin:round;stroke-miterlimit:4;stroke-dasharray:none;stroke-dashoffset:0"
       inkscape:connector-curvature="0" />
    <path
       id="path1146"
       d="m -117.15448,214.51074 v 63.9277 h 53.214838 v 15.7149 h 56.1386699 a 65.178574,65.178574 0 0 0 1.71875,-14.4649 65.178574,65.178574 0 0 0 -56.4296799,-64.5273 v -0.6504 z"
       style="opacity:1;fill:#445a64;fill-opacity:1;stroke:none;stroke-width:0.46922711;stroke-linecap:round;stroke-linejoin:round;stroke-miterlimit:4;stroke-dasharray:none;stroke-dashoffset:0"
       inkscape:connector-curvature="0" />
    <g
       id="g1126"
       transform="matrix(3.7795276,0,0,3.7795276,-176.29704,-2071.2237)"
       style="opacity:1">
      <circle
         r="12.780777"
         cy="621.85297"
         cx="28.499405"
         id="circle1122"
         style="opacity:1;fill:#546e7a;fill-opacity:1;stroke:none;stroke-width:0.15028316;stroke-linecap:round;stroke-linejoin:round;stroke-miterlimit:4;stroke-dasharray:none;stroke-dashoffset:0" />
      <circle
         style="opacity:1;fill:#afbdc3;fill-opacity:1;stroke:none;stroke-width:0.1;stroke-linecap:round;stroke-linejoin:round;stroke-miterlimit:4;stroke-dasharray:none;stroke-dashoffset:0"
         id="circle1124"
         cx="28.499405"
         cy="621.85297"
         r="8.5044641" />
    </g>
    <rect
       y="247.06416"
       x="-439.2103"
       height="31.31473"
       width="18.12808"
       id="rect1170"
       style="opacity:1;fill:#546e7a;fill-opacity:1;stroke:none;stroke-width:0.10870424;stroke-linecap:round;stroke-linejoin:round;stroke-miterlimit:4;stroke-dasharray:none;stroke-dashoffset:0" />
    <path
       sodipodi:nodetypes="ccccccccc"
       inkscape:connector-curvature="0"
       id="path1180"
       d="m -68.939912,109.51032 v 67.3214 c 0.034,4.31415 1.4262,5.76473 6.07143,5.71431 h 84.2857 c 5.93053,-1.20068 7.89948,-6.6268 5.53572,-14.10709 L 3.3815379,110.58174 c -2.20853,-4.54287 -6.70318,-8.08577 -11.42857,-8.03569 H -61.261352 c -4.11632,0 -7.07739,2.44691 -7.67856,6.96427 z"
       style="fill:#28b5f5;fill-opacity:1;stroke:none;stroke-width:0.99999994px;stroke-linecap:butt;stroke-linejoin:miter;stroke-opacity:1" />
  </g>
  <g
     transform="matrix(5.7954667,0,0,5.7954667,-688.53387,-711.11664)"
     id="g4527">
    <path
       style="display:inline;opacity:1;fill:#000000;stroke:none;stroke-width:0.26458332px;stroke-linecap:butt;stroke-linejoin:miter;stroke-opacity:1"
       d="m 166.5353,199.56018 -0.28348,1.03944 c -1.53018,0.25789 -2.3386,0.97075 -2.97992,2.47305 -6.82392,2.96174 -13.33127,4.36535 -22.6165,-1.81494 0.45344,-3.04526 0.9818,-6.15918 -2.39003,-8.33505 l -2.74033,1.13393 c -1.00216,-2.49046 -3.64198,-3.01384 -5.84242,-4.13483 -2.67893,0.97665 -3.56513,3.30644 -3.63802,4.77195 l 0.47247,0.94495 c -3.34213,3.50582 -2.96731,6.69536 -3.43945,8.21789 1.3764,1.77892 2.52459,2.65451 4.5584,2.90082 l 1.13925,-0.0783 c 0.74712,2.51228 3.3745,2.46643 5.22797,2.52285 4.76484,6.15079 18.88513,8.55874 26.35848,4.04958 0.16119,5.30204 0.74911,10.54313 2.6632,15.59476 -10.21474,3.54246 -18.91606,10.3869 -27.18518,18.17433 -4.18359,-0.0457 -8.24623,-1.24031 -12.76212,1.87087 4.91522,9.71093 14.74064,14.61447 21.64883,18.57523 1.65573,-1.25077 3.0314,-2.88662 3.27405,-6.08038 l 0.80181,1.13591 c 4.81734,-9.39389 13.52616,-15.56212 24.03027,-20.69351 13.78299,17.53855 22.12888,18.26854 31.97121,17.9959 0.69883,2.71284 2.71348,4.5443 9.14547,5.63755 1.08306,-6.84861 1.13576,-13.00064 -2.40543,-22.317 -5.66807,0.12059 -6.99819,1.90078 -7.38332,2.80632 l -0.10023,0.66819 c -8.1797,2.18295 -16.84636,-4.21193 -16.57071,-7.6172 0.69963,-3.05423 1.18222,-6.26886 -2.13815,-12.29439 l -0.40091,-3.07359 -0.56557,-0.98409 c -0.78408,-7.88582 0.93647,-13.19405 2.89272,-18.58867 10.22124,-1.53542 13.54609,4.4968 15.94741,7.44541 -0.58898,1.17055 -0.61916,2.89989 -0.50113,4.77744 1.26659,2.12819 3.46597,3.61061 5.87993,4.94448 1.11862,-0.3959 2.37273,-0.65632 3.0736,-1.46997 l 0.53453,-1.40316 c 1.30226,-0.36297 2.63195,-1.35294 3.60814,-2.20499 1.98016,-0.25447 1.0837,-2.88529 1.20272,-4.67723 -1.5135,-1.70306 -2.24316,-3.16168 -4.28303,-4.82706 -4.6379,-8.73255 -12.33641,-14.03962 -26.85387,-11.20909 -1.64032,0.055 -2.87716,0.19074 -5.07812,0.13364 0.0781,-1.16912 0.22978,-2.26475 -0.66818,-4.40997 -4.19668,3.3068 -8.05677,7.11849 -13.60436,8.39893 z"
       id="path4070"
       inkscape:connector-curvature="0"
       sodipodi:nodetypes="ccccccccccccccccccccccccccccccccccccccccccc"
       inkscape:label="outline_all_body" />
    <g
       transform="translate(178.53604,-153.94725)"
       id="g4100"
       inkscape:label="Wajah"
       style="display:inline;opacity:0.96000001">
      <path
         style="fill:#000000;stroke:none;stroke-width:0.26458332px;stroke-linecap:butt;stroke-linejoin:miter;stroke-opacity:1"
         d="m 5.7877605,327.16722 c 0.7737051,1.22388 0.8402674,3.08381 0.7323287,5.31528 l -1.0394344,4.63021 -2.1733632,2.03163 -5.4334076,-0.8977 -1.5119048,-2.97657 0.141741,-3.63802 -0.1889879,-1.60639 -2.2206103,0.0945 -0.2362351,-0.56697 2.8820684,-2.07886 1.2284227,-1.0867 0.094494,-1.84264 0.047247,-0.42521 7.3705357,2.69309 z"
         id="path4072"
         inkscape:connector-curvature="0"
         inkscape:label="rambut_belakang"
         sodipodi:nodetypes="cccccccccccccccc" />
      <path
         inkscape:label="wajah_outlin"
         style="display:inline;fill:#000000;fill-opacity:1;stroke:none;stroke-width:0.28719741px;stroke-linecap:butt;stroke-linejoin:miter;stroke-opacity:1"
         d="m -25.876908,328.18944 0.43517,3.69893 2.393434,7.03524 -0.362641,12.98259 2.10332,2.75606 c 12.6040568,0.29583 17.3150484,-4.03532 22.19366055,-8.26821 0.83842995,-2.17509 2.25120255,-6.00478 0.47143395,-6.0924 6.4362149,-1.72792 5.6986036,-7.58098 5.1132454,-8.12315 -1.6186009,-0.83464 -4.5740457,0.43737 -6.75484037,1.7578 -0.25258911,1.23299 -0.20376565,2.46597 -0.0725283,3.69896 l -1.36832953,-0.74242 c 0.038539,-1.84696 0.097443,-3.7075 -0.1450566,-5.36711 -0.4080563,-0.58904 -0.6798442,-1.58688 -0.7978115,-3.04619 -3.4674467,3.87241 -9.1869046,-2.90105 -13.7803776,-4.35167 l -7.615472,1.23296 -1.813207,1.233 z"
         id="path4074"
         inkscape:connector-curvature="0"
         sodipodi:nodetypes="ccccccccccccccccc" />
      <path
         inkscape:label="wajah_dasar"
         sodipodi:nodetypes="cccccccccccccccc"
         inkscape:connector-curvature="0"
         id="path4076"
         d="m -24.588796,329.07234 0.400904,3.40768 2.204974,6.48128 -0.334087,11.96033 1.937704,2.53905 c 11.6116057,0.27253 15.951651,-3.71758 20.44611838,-7.61717 0.77241144,-2.00382 2.07394152,-5.53196 0.43431296,-5.61268 5.92942356,-1.59186 5.24989216,-6.98405 4.71062546,-7.48353 -4.36989219,-0.94878 -6.04828215,1.71727 -5.23468392,5.448 l -2.31568018,-1.10487 c 0.035504,-1.70153 0.08977,-3.41557 -0.1336348,-4.9445 -0.3759257,-0.54266 -0.6263128,-1.46193 -0.7349913,-2.80633 -3.1944179,3.56749 -8.4635226,-2.67262 -12.6953026,-4.00902 l -7.015825,1.13588 -1.670434,1.13591 z"
         style="display:inline;fill:#f5a26c;fill-opacity:1;stroke:none;stroke-width:0.26458332px;stroke-linecap:butt;stroke-linejoin:miter;stroke-opacity:1" />
      <path
         inkscape:label="wajah_2"
         sodipodi:nodetypes="ccccccccccccc"
         inkscape:connector-curvature="0"
         id="path4078"
         d="m -21.132275,351.59561 c 15.6754247,0.93542 13.3199473,-6.23564 13.6672453,-8.38804 0.7355275,-0.30057 1.5272484,-0.54718 0.094494,-2.9293 2.6280901,-1.16372 3.5567073,-1.77636 -0.1431317,-6.50567 1.3477684,-0.80069 2.8893696,-0.94234 3.8283997,-3.13273 l 1.2284225,2.26787 -0.094494,4.25223 c 0.3891507,0.45364 0.086846,1.17322 1.5119047,1.22843 l 1.70089282,-0.75597 c 0,0 0.94494048,1.32292 0.56696428,1.22844 -0.37797619,-0.0945 -1.51190475,0.85045 -1.51190475,0.85045 3.27684945,10.62775 -15.24338185,13.35364 -20.01079285,12.74996 -0.556456,-0.5658 -0.193293,-0.17553 -0.838,-0.86567 z"
         style="display:inline;fill:#cc865a;fill-opacity:1;stroke:none;stroke-width:0.26458332px;stroke-linecap:butt;stroke-linejoin:miter;stroke-opacity:1" />
      <path
         style="display:inline;opacity:1;fill:#f5cb98;fill-opacity:1;stroke:none;stroke-width:0.26458332px;stroke-linecap:butt;stroke-linejoin:miter;stroke-opacity:1"
         d="m -23.319266,334.41772 1.572583,4.59083 -0.239593,11.72409 c 11.933361,2.13818 15.0140877,-3.98598 14.3667202,-7.6172 2.6130159,-1.71734 -1.2129154,-3.12157 0.470096,-2.68414 2.5505442,-0.15375 2.6650946,-3.44299 0.6013564,-3.94224 0.5412506,0.1518 -1.3132748,-0.38054 -1.4031651,-0.93544 1.218207,-2.63225 -0.2449856,-7.94945 -6.7065685,-3.5558 -0.308517,0.20978 -0.58776,-0.42663 -0.879807,-0.57563 -2.860459,-1.45942 -3.305605,1.9134 -3.171223,2.19374 -1.829421,-1.78361 -4.459698,-1.5353 -4.610399,0.80179 z"
         id="path4080"
         inkscape:connector-curvature="0"
         sodipodi:nodetypes="cccccccsscc"
         inkscape:label="wajah_clear" />
      <path
         style="fill:none;stroke:#000000;stroke-width:0.26458332px;stroke-linecap:butt;stroke-linejoin:miter;stroke-opacity:1"
         d="m 1.7953869,338.62462 c 0.7316374,-1.02301 0.7462003,-1.70307 -0.5669643,-1.74813 0.2891266,-1.89226 1.1297009,-2.22209 1.937128,-2.64583 1.2323986,-0.0153 0.9468745,0.53866 0.8031994,1.03941"
         id="path4082"
         inkscape:connector-curvature="0"
         sodipodi:nodetypes="cccc"
         inkscape:label="lubang_telinga" />
      <path
         style="display:inline;fill:#c5794e;fill-opacity:1;stroke:none;stroke-width:0.26458332px;stroke-linecap:butt;stroke-linejoin:miter;stroke-opacity:1"
         d="m -18.331845,346.84559 c 1.92138,1.50925 4.282366,1.80966 7.843006,-1.55913 -2.424081,0.82704 -3.944494,3.11386 -7.843006,1.55913 z"
         id="path4084"
         inkscape:connector-curvature="0"
         sodipodi:nodetypes="ccc"
         inkscape:label="bawah mulut" />
      <g
         id="g4094"
         inkscape:label="hidung"
         style="display:inline">
        <path
           inkscape:label="hidung_outline"
           sodipodi:nodetypes="cccccccccc"
           inkscape:connector-curvature="0"
           id="path4086"
           d="m -18.541823,333.44887 0.396838,3.96217 -1.933638,4.12275 2.004521,1.1693 1.937704,-0.0668 1.770661,-1.13588 -2.004521,0.60134 c -0.955918,-0.17064 -2.122854,0.0808 -2.672696,-0.90202 l 1.570209,-3.74179 z"
           style="fill:#000000;stroke:none;stroke-width:0.26458332px;stroke-linecap:butt;stroke-linejoin:miter;stroke-opacity:1" />
        <path
           inkscape:label="hidung_bright"
           inkscape:connector-curvature="0"
           id="path4088"
           d="m -16.384097,331.22672 -1.30126,0.2983 -0.808524,1.17237 0.386371,0.91854 0.50113,3.90882 -1.436574,3.8754 0.868626,0.63476 2.03793,0.16704 1.837478,-1.23611 -1.570208,-0.30067 1.236122,-4.77745 z"
           style="display:inline;fill:#fdf3c4;fill-opacity:1;stroke:none;stroke-width:0.26458332px;stroke-linecap:butt;stroke-linejoin:miter;stroke-opacity:1"
           sodipodi:nodetypes="cccccccccccc" />
        <path
           inkscape:label="hidung_dark"
           inkscape:connector-curvature="0"
           id="path4090"
           d="m -14.833459,332.81411 -0.400904,0.50114 0.400904,3.17381 -1.102487,4.37655 -2.53906,0.56793 2.071339,0.50115 2.572469,-0.80182 -0.7684,-4.61039 0.467722,-0.50112 z"
           style="fill:#c98055;fill-opacity:1;stroke:none;stroke-width:0.26458332px;stroke-linecap:butt;stroke-linejoin:miter;stroke-opacity:1" />
        <path
           inkscape:label="hidung_little_darl"
           inkscape:connector-curvature="0"
           id="path4092"
           d="m -17.639789,332.68046 0.26727,1.16933 -0.03341,1.73725 0.501131,1.93771 -0.868626,2.17156 v 0.73499 l 0.935443,0.16703 0.601356,-0.30067 0.935444,-2.93997 0.200452,-1.80406 -0.434313,-2.03793 -1.169304,-1.9377 z"
           style="fill:#efc291;fill-opacity:1;stroke:none;stroke-width:0.26458332px;stroke-linecap:butt;stroke-linejoin:miter;stroke-opacity:1" />
      </g>
      <path
         style="display:inline;fill:#000000;stroke:none;stroke-width:0.26458332px;stroke-linecap:butt;stroke-linejoin:miter;stroke-opacity:1"
         d="m -20.410714,344.43601 c 7.01548,2.48373 12.0867485,-2.80116 12.1838261,-2.95886 -0.07617,-0.63725 -1.1551015,-0.83835 -1.9784691,-0.91541 0.4946285,0.0514 3.1966499,-0.6148 2.7293549,2.28458 -0.047596,-0.65207 -0.414605,-0.96936 -0.650486,-0.8199 -4.8262789,4.73173 -9.1787319,4.71502 -12.2842259,2.40959 z"
         id="path4096"
         inkscape:connector-curvature="0"
         sodipodi:nodetypes="cccccc"
         inkscape:label="mulut" />
      <ellipse
         style="display:inline;opacity:1;fill:#f8dcbb;fill-opacity:1;stroke:none;stroke-width:4;stroke-linecap:round;stroke-linejoin:round;stroke-miterlimit:4;stroke-dasharray:none;stroke-dashoffset:0"
         id="ellipse4098"
         cx="-8.9034166"
         cy="338.22635"
         rx="3.6582515"
         ry="1.6370258"
         inkscape:label="pipi" />
    </g>
    <g
       transform="translate(178.53604,-153.94725)"
       id="g4118"
       inkscape:label="mata"
       style="display:inline;opacity:0.96000001">
      <path
         inkscape:label="mata_kanan_putih"
         sodipodi:nodetypes="ccccc"
         inkscape:connector-curvature="0"
         id="path4102"
         d="m -14.304036,334.30151 c 0.01883,0.69324 0.08748,1.36988 0.200799,2.03163 2.387679,-0.42087 4.185582,-0.47313 5.8231961,-0.42521 0.1676733,-0.60857 0.3527991,-1.18723 0.3071056,-2.16157 -1.2605837,-1.53866 -4.5410237,-2.85708 -6.3311007,0.55515 z"
         style="display:inline;fill:#ececec;stroke:none;stroke-width:0.1;stroke-linecap:butt;stroke-linejoin:miter;stroke-opacity:1" />
      <path
         inkscape:label="mata_kanan_bawah"
         sodipodi:nodetypes="ccc"
         inkscape:connector-curvature="0"
         id="path4104"
         d="m -14.481212,336.40402 c 2.050308,-0.51863 4.129503,-0.92041 7.4414055,-0.3071 -2.4958639,-0.0978 -4.9770365,-0.005 -7.4414055,0.3071 z"
         style="fill:#000000;stroke:none;stroke-width:0.1;stroke-linecap:butt;stroke-linejoin:miter;stroke-opacity:1" />
      <path
         style="opacity:1;fill:#000000;stroke:none;stroke-width:0.1;stroke-linecap:butt;stroke-linejoin:miter;stroke-opacity:1"
         d="m -14.103236,333.92355 c 0.0073,-0.2567 -0.03164,-0.41217 0.08758,-0.5512 1.474945,-1.71989 4.2729207,-2.51028 6.1726511,0.55121 -1.8098488,-1.58469 -3.2165021,-2.63372 -6.2602301,-1e-5 z"
         id="path4106"
         inkscape:connector-curvature="0"
         sodipodi:nodetypes="cscc"
         inkscape:label="mata_kanan_atas" />
      <path
         inkscape:label="bola_mata_hitam_kanan"
         sodipodi:nodetypes="cccc"
         inkscape:connector-curvature="0"
         id="path4108"
         d="m -11.729073,333.29753 0.377976,0.87407 -0.673271,0.75594 c 3.3282507,1.65714 3.2477123,-2.98317 0.295295,-1.63001 z"
         style="fill:#000000;stroke:none;stroke-width:0.26458332px;stroke-linecap:butt;stroke-linejoin:miter;stroke-opacity:1" />
      <path
         inkscape:label="mata_putih_kiri"
         sodipodi:nodetypes="ccccc"
         inkscape:connector-curvature="0"
         id="path4110"
         d="m -21.515197,334.85203 c -0.459094,1.1821 -0.621562,2.37026 0.400905,3.20725 0.905737,-0.48539 1.861649,-0.79516 2.856443,-0.96885 l -0.835218,-2.57249 c -1.641181,-0.23606 -1.745872,0.16809 -2.42213,0.33409 z"
         style="fill:#f2f2f2;stroke:none;stroke-width:0.1;stroke-linecap:butt;stroke-linejoin:miter;stroke-opacity:1" />
      <path
         inkscape:label="mata_hiram_kiri"
         sodipodi:nodetypes="cccccccccc"
         inkscape:connector-curvature="0"
         id="path4112"
         d="m -18.424893,334.13377 -0.451017,0.25056 c -1.988267,-0.75595 -3.17412,0.49303 -3.123713,1.5201 0.924121,-1.75878 2.442602,-1.20264 2.372017,-0.81852 -0.437576,0.27524 -0.477133,0.21409 -0.3842,0.40091 1.050184,0.91195 0.512539,0.94178 0,0.98555 -0.390505,0.62923 0.03325,0.53467 0.05011,0.80179 -0.886232,0.44761 -0.87618,0.59646 -1.286234,0.88535 0.940116,-0.3278 1.7305,-0.7679 3.173825,-0.71829 z"
         style="fill:#000000;stroke:none;stroke-width:0.1;stroke-linecap:butt;stroke-linejoin:miter;stroke-opacity:1" />
      <path
         style="fill:#000000;stroke:none;stroke-width:0.26458332px;stroke-linecap:butt;stroke-linejoin:miter;stroke-opacity:1"
         d="m -16.270032,329.97439 0.701582,2.60585 c 4.644011,-4.15476 7.7482511,-1.27698 8.9869381,-0.20045 -2.4541667,-4.20349 -5.8136211,-4.51343 -9.6885201,-2.4054 z"
         id="path4114"
         inkscape:connector-curvature="0"
         sodipodi:nodetypes="cccc"
         inkscape:label="alis_kanan" />
      <path
         style="display:inline;fill:#000000;stroke:none;stroke-width:0.26458332px;stroke-linecap:butt;stroke-linejoin:miter;stroke-opacity:1"
         d="m -23.486309,335.0859 c 0.438735,-4.65449 2.943842,-2.59328 5.07812,-1.73726 -4.285747,-7.20004 -6.551622,0.94716 -5.07812,1.73726 z"
         id="path4116"
         inkscape:connector-curvature="0"
         sodipodi:nodetypes="ccc"
         inkscape:label="alis_kiri" />
    </g>
    <g
       transform="translate(178.53604,-153.94725)"
       id="g4138"
       inkscape:label="Topi"
       style="display:inline;opacity:0.96000001">
      <path
         sodipodi:nodetypes="cccsc"
         inkscape:connector-curvature="0"
         id="path4120"
         d="m -24.190476,333.47469 c -2.480936,-0.44741 -4.975076,-0.74297 -7.370534,-2.17337 11.612661,-11.06492 26.150105,-7.15094 29.79632,-5.6196 -6.2709902,1.89357 -17.183627,-0.78693 -22.542387,2.28295 -1.255738,0.71938 0.0373,3.3877 0.116601,5.51002 z"
         style="display:inline;opacity:1;fill:#000000;stroke:none;stroke-width:0.26458332px;stroke-linecap:butt;stroke-linejoin:miter;stroke-opacity:1" />
      <path
         style="display:inline;fill:#116dab;fill-opacity:1;stroke:none;stroke-width:0.26458332px;stroke-linecap:butt;stroke-linejoin:miter;stroke-opacity:1"
         d="m -28.597838,329.87414 c 1.89204,-1.40845 2.975003,-2.61462 6.147198,-4.34311 11.346257,-2.88495 15.9444144,-1.38363 20.3124838,0.26725 -1.2619193,1.83649 -2.3276259,3.93459 -4.6103993,4.40994 -3.9979785,-1.09194 -8.8614765,-7.97109 -21.8492825,-0.33408 z"
         id="path4122"
         inkscape:connector-curvature="0"
         sodipodi:nodetypes="ccccc" />
      <path
         sodipodi:nodetypes="ccccc"
         inkscape:connector-curvature="0"
         id="path4124"
         d="m -31.60462,331.11026 c 0.321832,-0.50642 3.208864,-3.21597 6.381059,-4.94446 9.742639,-3.85381 19.0514223,-3.5552 24.5553872,-0.83524 -1.2619193,1.83649 -3.7976083,4.40231 -6.0803817,4.87766 -8.1406565,-3.16328 -12.0353025,-4.83067 -24.8560645,0.90204 z"
         style="display:inline;opacity:1;fill:#000000;fill-opacity:1;stroke:none;stroke-width:0.26458332px;stroke-linecap:butt;stroke-linejoin:miter;stroke-opacity:1" />
      <path
         sodipodi:nodetypes="ccccc"
         inkscape:connector-curvature="0"
         id="path4126"
         d="m 5.8451932,327.36832 0.2064072,-7.63706 c -3.757035,-9.73012 -23.7289274,-10.67874 -31.1920794,-2.41291 l -0.619222,8.74208 c 8.699795,-1.65432 15.268697,-5.0467 31.6048942,1.30789 z"
         style="display:inline;fill:#000000;fill-opacity:1;stroke:none;stroke-width:0.28897047px;stroke-linecap:butt;stroke-linejoin:miter;stroke-opacity:1" />
      <path
         style="display:inline;fill:#00395e;fill-opacity:1;stroke:none;stroke-width:0.26458332px;stroke-linecap:butt;stroke-linejoin:miter;stroke-opacity:1"
         d="m 4.3845238,326.67112 0.1889879,-6.99254 c -8.1911646,-9.38669 -20.4670977,-8.21802 -28.4299007,-2.12276 l -0.566964,8.00431 c 7.965591,-1.51471 13.850344,-4.70731 28.8078768,1.11099 z"
         id="path4128"
         inkscape:connector-curvature="0"
         sodipodi:nodetypes="ccccc" />
      <path
         sodipodi:nodetypes="ccccc"
         inkscape:connector-curvature="0"
         id="path4130"
         d="m -3.6569964,323.53071 -0.8620282,-7.05936 c -5.9562014,-3.52655 -13.1783654,-2.29481 -19.2872514,1.06777 l -0.475336,7.83202 c 7.500438,-1.78299 9.691028,-3.16988 20.6246156,-1.84043 z"
         style="display:inline;opacity:1;fill:#79c2f1;fill-opacity:1;stroke:none;stroke-width:0.22791332px;stroke-linecap:butt;stroke-linejoin:miter;stroke-opacity:1" />
      <path
         style="display:inline;opacity:0.5;fill:#044671;fill-opacity:1;stroke:none;stroke-width:0.22791332px;stroke-linecap:butt;stroke-linejoin:miter;stroke-opacity:1"
         d="m -3.889257,323.23434 -0.9288456,-6.59164 c -4.6701493,-3.13084 -9.8339114,-2.42092 -16.1301304,0.88402 l -0.09924,6.46751 c 4.042301,-0.3122 4.86745,-2.49894 17.158218,-0.75989 z"
         id="path4132"
         inkscape:connector-curvature="0"
         sodipodi:nodetypes="cccccc" />
      <path
         sodipodi:nodetypes="ccccc"
         inkscape:connector-curvature="0"
         id="path4134"
         d="m -28.597838,329.87414 c 1.89204,-1.40845 2.975003,-2.61462 6.147198,-4.34311 11.346257,-2.88495 15.9444144,-1.38363 20.3124838,0.26725 -1.2619193,1.83649 -2.3276259,3.93459 -4.6103993,4.40994 -3.9979785,-1.09194 -8.8614765,-7.97109 -21.8492825,-0.33408 z"
         style="display:inline;fill:#116dab;fill-opacity:1;stroke:none;stroke-width:0.26458332px;stroke-linecap:butt;stroke-linejoin:miter;stroke-opacity:1" />
      <path
         style="fill:#003a5f;fill-opacity:1;stroke:none;stroke-width:0.26458332px;stroke-linecap:butt;stroke-linejoin:miter;stroke-opacity:1"
         d="m -8.8824405,328.04129 c 1.1113305,-0.63968 1.6568265,-0.26086 3.9215031,-2.97657 0.5578753,0.13932 1.2676117,0.44002 2.2678571,0.82684 -1.1028085,1.40641 -2.1593971,2.42559 -3.6380207,3.33091 z"
         id="path4136"
         inkscape:connector-curvature="0"
         sodipodi:nodetypes="ccccc" />
    </g>
    <path
       style="display:inline;opacity:0.96000001;fill:#824101;fill-opacity:1;stroke:none;stroke-width:0.26458332px;stroke-linecap:butt;stroke-linejoin:miter;stroke-opacity:1"
       d="m 176.42614,174.84523 1.37016,3.4018 0.0472,2.31511 0.56697,-0.51972 0.56696,-3.1183 0.75595,1.41739 0.33073,-1.93712 0.94494,1.6064 0.94494,-1.74813 0.70871,1.51191 0.66146,-1.84264 v -1.84264 l -4.48847,-1.93712 z"
       id="path4140"
       inkscape:connector-curvature="0" />
    <path
       inkscape:connector-curvature="0"
       id="path4142"
       d="m 177.26916,174.57934 1.03526,1.76766 0.0357,1.20298 0.42839,-0.27005 0.42838,-1.62035 0.57119,0.73651 0.24989,-1.00658 0.71398,0.83473 0.71397,-0.90837 0.53549,0.78563 0.49978,-0.95749 v -0.95748 l -3.39139,-1.00658 z"
       style="display:inline;opacity:0.96000001;fill:#6e3701;fill-opacity:1;stroke:none;stroke-width:0.16578585px;stroke-linecap:butt;stroke-linejoin:miter;stroke-opacity:1" />
    <g
       transform="translate(178.53604,-153.94725)"
       id="g4170"
       inkscape:label="tangan_kiri"
       style="display:inline;opacity:0.96000001">
      <path
         inkscape:label="lengan_baju_kiri"
         sodipodi:nodetypes="ccccc"
         inkscape:connector-curvature="0"
         id="path4144"
         d="m -16.470485,358.97312 c -1.564509,0.79197 -3.083704,1.64737 -5.07812,1.83747 1.520844,1.49293 1.330493,3.69048 1.403165,5.77972 l 2.138156,-1.10251 c 0.182203,-2.47935 0.731423,-4.6585 1.536799,-6.51468 z"
         style="fill:#ffffff;fill-opacity:1;stroke:none;stroke-width:0.1;stroke-linecap:butt;stroke-linejoin:miter;stroke-opacity:1" />
      <path
         inkscape:label="lengan_kiri_bright"
         sodipodi:nodetypes="ccccccccccccc"
         inkscape:connector-curvature="0"
         id="path4146"
         d="m -47.247024,351.85379 5.905879,-3.9215 c 4.197178,5.0339 2.335373,8.5031 2.070763,9.32724 0.301933,-0.0604 0.603866,0.0539 0.905799,-0.68103 5.099381,4.01454 10.482831,5.63478 16.205729,4.39397 1.125233,1.7244 1.839638,3.60856 1.370164,5.95312 -8.989817,3.08008 -16.521128,0.8871 -23.198289,-4.39396 -1.59657,-0.21941 -3.193139,-0.426 -4.789709,-1.68762 1.594972,-1.89191 3.023015,-3.86729 4.443357,-5.84652 0.172141,1.69307 0.711226,3.10387 2.037929,3.90882 -2.80356,-4.42146 0.546492,-5.36479 1.403165,-7.71742 -1.457213,1.61862 -2.36499,2.1773 -3.474505,2.83974 -1.278216,0.0665 -2.217201,-0.92321 -2.880282,-2.17484 z"
         style="display:inline;fill:#ec9b68;fill-opacity:1;stroke:none;stroke-width:0.1;stroke-linecap:butt;stroke-linejoin:miter;stroke-opacity:1" />
      <path
         inkscape:label="tangan_dark_kiri"
         sodipodi:nodetypes="ccccc"
         inkscape:connector-curvature="0"
         id="path4148"
         d="m -42.805802,362.38987 1.370163,-0.94494 c 4.195038,3.35748 9.919083,5.87651 20.221725,3.87426 l -0.472467,1.08668 c -9.386885,2.11812 -15.811059,0.46386 -21.119421,-4.016 z"
         style="fill:#cd865a;fill-opacity:1;stroke:none;stroke-width:0.26458332px;stroke-linecap:butt;stroke-linejoin:miter;stroke-opacity:1" />
      <path
         inkscape:label="lengan_kiri_dark"
         sodipodi:nodetypes="cccccccccccscc"
         inkscape:connector-curvature="0"
         id="path4150"
         d="m -46.065847,352.18452 c 1.141925,-1.41731 2.977812,-2.27945 4.724702,-3.21279 1.36941,1.73982 2.889194,6.30769 1.41741,7.98473 0.0455,0.46547 -0.04781,1.00035 0.472471,1.22844 0.0939,-0.432 0.188822,-0.86318 0.897692,-0.8032 4.975186,4.47873 10.415078,5.14686 16.016742,4.48847 l 1.086681,3.59077 c -7.760211,1.04048 -14.445748,-0.42661 -19.938243,-4.67747 -2.555387,2.37865 -4.202006,0.39521 -6.189361,0.0473 l 2.740327,-3.73253 c 0.875501,0.96589 1.501529,2.74256 2.834822,2.22062 0.217341,-0.42111 0.900958,-0.94261 0.575564,-1.17364 -3.150623,-2.23688 0.311837,-4.16084 1.078082,-6.62212 -1.404664,-3.15146 -3.48053,4.26796 -5.716889,0.66142 z"
         style="display:inline;fill:#f1c594;fill-opacity:1;stroke:none;stroke-width:0.1;stroke-linecap:butt;stroke-linejoin:miter;stroke-opacity:1" />
      <g
         style="display:inline"
         inkscape:label="jari_kiri"
         id="g4168">
        <path
           style="display:inline;opacity:0.96000001;fill:#f0e4ae;fill-opacity:1;stroke:none;stroke-width:0.1;stroke-linecap:butt;stroke-linejoin:miter;stroke-opacity:1"
           d="m -48.581751,344.84942 c -1.240226,1.0359 -2.079977,2.43222 -2.882069,3.86244 1.066193,1.30143 2.218804,1.82509 3.372011,2.34339 l 4.409945,-2.656 c -1.378216,-1.51488 -3.078374,-2.61124 -4.899887,-3.54983 z"
           id="path4152"
           inkscape:connector-curvature="0"
           sodipodi:nodetypes="ccccc" />
        <path
           style="display:inline;opacity:0.96000001;fill:#f1c594;fill-opacity:1;stroke:none;stroke-width:0.1;stroke-linecap:butt;stroke-linejoin:miter;stroke-opacity:1"
           d="m -48.425896,345.67645 c -0.772237,0.8511 -1.466054,1.83289 -2.10475,2.90656 0.82353,0.67656 1.609182,1.16372 2.388722,1.62033 1.151859,-0.57634 2.070443,-1.33929 3.006783,-2.08804 -1.04358,-1.0263 -2.158917,-1.76558 -3.290755,-2.43885 z"
           id="path4154"
           inkscape:connector-curvature="0"
           sodipodi:nodetypes="ccccc" />
        <path
           style="display:inline;opacity:0.96000001;fill:#fef0b6;fill-opacity:1;stroke:none;stroke-width:0.1;stroke-linecap:butt;stroke-linejoin:miter;stroke-opacity:1"
           d="m -50.848027,350.23673 c 0.690446,0.51495 1.380893,0.96377 2.071339,1.16933 0.545989,1.67544 1.17561,3.25283 2.990077,3.44109 -0.220869,0.76221 -0.470972,1.50493 -1.085781,2.00451 -0.703683,0.0843 -1.356479,0.0159 -1.971114,-0.16703 -1.577576,-0.88003 -2.868015,-1.93953 -4.092565,-3.0402 0.451961,-1.35555 1.191531,-2.45225 2.088044,-3.4077 z"
           id="path4156"
           inkscape:connector-curvature="0"
           sodipodi:nodetypes="ccccccc" />
        <path
           style="display:inline;opacity:0.96000001;fill:#f1c594;fill-opacity:1;stroke:none;stroke-width:0.1;stroke-linecap:butt;stroke-linejoin:miter;stroke-opacity:1"
           d="m -50.731097,351.03855 c -0.280712,0.0761 -1.445383,2.28479 -1.336346,2.37202 1.043258,1.02094 2.058101,1.7009 3.056895,2.18826 0.287841,-0.40693 0.571196,-0.80041 0.902033,-1.33633 -1.547681,-2.15959 -1.082988,-1.697 -1.286235,-2.10476 -0.620493,-0.23303 -0.916118,-0.72595 -1.336347,-1.11919 z"
           id="path4158"
           inkscape:connector-curvature="0"
           sodipodi:nodetypes="cccccc" />
        <path
           style="display:inline;opacity:0.96000001;fill:#e99a67;fill-opacity:1;stroke:none;stroke-width:0.1;stroke-linecap:butt;stroke-linejoin:miter;stroke-opacity:1"
           d="m -48.643053,356.31712 c 0.44707,-0.58063 0.901972,-1.15082 1.219417,-1.90428 0.489994,0.31086 0.979989,0.57541 1.469983,0.53453 -0.295754,0.62421 -0.510193,1.35007 -0.968854,1.77065 -0.590239,-0.0667 -1.251048,0.1488 -1.720546,-0.4009 z"
           id="path4160"
           inkscape:connector-curvature="0"
           sodipodi:nodetypes="ccccc" />
        <path
           style="fill:#f3e0a9;fill-opacity:1;stroke:none;stroke-width:0.1;stroke-linecap:butt;stroke-linejoin:miter;stroke-opacity:1"
           d="m -53.318266,354.33426 c -0.440435,0.95808 -0.965734,1.85087 -0.850445,3.23643 0.785364,1.0222 1.589946,2.03312 3.63802,2.31511 0.543341,-0.10495 1.086681,-0.0354 1.630022,-0.37799 0.734937,-0.45412 1.098398,-1.27971 1.488281,-2.07888 -0.616253,-10e-4 -1.212654,0.0473 -1.913504,-0.16537 -1.640727,-0.97643 -2.777477,-1.95287 -3.992374,-2.9293 z"
           id="path4162"
           inkscape:connector-curvature="0"
           sodipodi:nodetypes="ccccccc" />
        <path
           style="fill:#f1c594;fill-opacity:1;stroke:none;stroke-width:0.1;stroke-linecap:butt;stroke-linejoin:miter;stroke-opacity:1"
           d="m -53.019592,355.73247 c -0.318683,0.43302 -0.510714,0.99268 -0.517834,1.73726 0.907603,0.78329 1.815205,1.46074 2.722808,1.67044 0.464996,-0.35766 0.761892,-0.96747 1.052373,-1.58691 -1.381674,-1.10008 -2.248636,-1.34231 -3.257347,-1.82079 z"
           id="path4164"
           inkscape:connector-curvature="0"
           sodipodi:nodetypes="ccccc" />
        <path
           style="display:inline;fill:#f1a16c;fill-opacity:1;stroke:none;stroke-width:0.1;stroke-linecap:butt;stroke-linejoin:miter;stroke-opacity:1"
           d="m -49.361341,357.40292 c -0.473007,0.67388 -0.73122,1.45516 -1.085781,2.18826 -0.09489,0.0633 1.354672,-0.0289 1.403165,-0.13364 0.19508,0.12462 1.517293,-1.79342 1.436574,-1.88759 -0.589719,0.003 -1.185852,0.0103 -1.753958,-0.16703 z"
           id="path4166"
           inkscape:connector-curvature="0"
           sodipodi:nodetypes="ccccc" />
      </g>
    </g>
    <g
       transform="translate(178.53604,-153.94725)"
       inkscape:label="tangan_kiri"
       id="g4198"
       style="display:inline;opacity:0.96000001">
      <path
         style="fill:#ffffff;fill-opacity:1;stroke:none;stroke-width:0.1;stroke-linecap:butt;stroke-linejoin:miter;stroke-opacity:1"
         d="m -16.470485,358.97312 c -1.564509,0.79197 -3.083704,1.64737 -5.07812,1.83747 1.520844,1.49293 1.330493,3.69048 1.403165,5.77972 l 2.138156,-1.10251 c 0.182203,-2.47935 0.731423,-4.6585 1.536799,-6.51468 z"
         id="path4172"
         inkscape:connector-curvature="0"
         sodipodi:nodetypes="ccccc"
         inkscape:label="lengan_baju_kiri" />
      <path
         style="display:inline;fill:#ec9b68;fill-opacity:1;stroke:none;stroke-width:0.1;stroke-linecap:butt;stroke-linejoin:miter;stroke-opacity:1"
         d="m -47.247024,351.85379 5.905879,-3.9215 c 4.197178,5.0339 2.335373,8.5031 2.070763,9.32724 0.301933,-0.0604 0.603866,0.0539 0.905799,-0.68103 5.099381,4.01454 10.482831,5.63478 16.205729,4.39397 1.125233,1.7244 1.839638,3.60856 1.370164,5.95312 -8.989817,3.08008 -16.521128,0.8871 -23.198289,-4.39396 -1.59657,-0.21941 -3.193139,-0.426 -4.789709,-1.68762 1.594972,-1.89191 3.023015,-3.86729 4.443357,-5.84652 0.172141,1.69307 0.711226,3.10387 2.037929,3.90882 -2.80356,-4.42146 0.546492,-5.36479 1.403165,-7.71742 -1.457213,1.61862 -2.36499,2.1773 -3.474505,2.83974 -1.278216,0.0665 -2.217201,-0.92321 -2.880282,-2.17484 z"
         id="path4174"
         inkscape:connector-curvature="0"
         sodipodi:nodetypes="ccccccccccccc"
         inkscape:label="lengan_kiri_bright" />
      <path
         style="fill:#cd865a;fill-opacity:1;stroke:none;stroke-width:0.26458332px;stroke-linecap:butt;stroke-linejoin:miter;stroke-opacity:1"
         d="m -42.805802,362.38987 1.370163,-0.94494 c 4.195038,3.35748 9.919083,5.87651 20.221725,3.87426 l -0.472467,1.08668 c -9.386885,2.11812 -15.811059,0.46386 -21.119421,-4.016 z"
         id="path4176"
         inkscape:connector-curvature="0"
         sodipodi:nodetypes="ccccc"
         inkscape:label="tangan_dark_kiri" />
      <path
         style="display:inline;fill:#f1c594;fill-opacity:1;stroke:none;stroke-width:0.1;stroke-linecap:butt;stroke-linejoin:miter;stroke-opacity:1"
         d="m -46.065847,352.18452 c 1.141925,-1.41731 2.977812,-2.27945 4.724702,-3.21279 1.36941,1.73982 2.889194,6.30769 1.41741,7.98473 0.0455,0.46547 -0.04781,1.00035 0.472471,1.22844 0.0939,-0.432 0.188822,-0.86318 0.897692,-0.8032 4.975186,4.47873 10.415078,5.14686 16.016742,4.48847 l 1.086681,3.59077 c -7.760211,1.04048 -14.445748,-0.42661 -19.938243,-4.67747 -2.555387,2.37865 -4.202006,0.39521 -6.189361,0.0473 l 2.740327,-3.73253 c 0.875501,0.96589 1.501529,2.74256 2.834822,2.22062 0.217341,-0.42111 0.900958,-0.94261 0.575564,-1.17364 -3.150623,-2.23688 0.311837,-4.16084 1.078082,-6.62212 -1.404664,-3.15146 -3.48053,4.26796 -5.716889,0.66142 z"
         id="path4178"
         inkscape:connector-curvature="0"
         sodipodi:nodetypes="cccccccccccscc"
         inkscape:label="lengan_kiri_dark" />
      <g
         id="g4196"
         inkscape:label="jari_kiri"
         style="display:inline">
        <path
           sodipodi:nodetypes="ccccc"
           inkscape:connector-curvature="0"
           id="path4180"
           d="m -48.581751,344.84942 c -1.240226,1.0359 -2.079977,2.43222 -2.882069,3.86244 1.066193,1.30143 2.218804,1.82509 3.372011,2.34339 l 4.409945,-2.656 c -1.378216,-1.51488 -3.078374,-2.61124 -4.899887,-3.54983 z"
           style="display:inline;opacity:0.96000001;fill:#f0e4ae;fill-opacity:1;stroke:none;stroke-width:0.1;stroke-linecap:butt;stroke-linejoin:miter;stroke-opacity:1" />
        <path
           sodipodi:nodetypes="ccccc"
           inkscape:connector-curvature="0"
           id="path4182"
           d="m -48.425896,345.67645 c -0.772237,0.8511 -1.466054,1.83289 -2.10475,2.90656 0.82353,0.67656 1.609182,1.16372 2.388722,1.62033 1.151859,-0.57634 2.070443,-1.33929 3.006783,-2.08804 -1.04358,-1.0263 -2.158917,-1.76558 -3.290755,-2.43885 z"
           style="display:inline;opacity:0.96000001;fill:#f1c594;fill-opacity:1;stroke:none;stroke-width:0.1;stroke-linecap:butt;stroke-linejoin:miter;stroke-opacity:1" />
        <path
           sodipodi:nodetypes="ccccccc"
           inkscape:connector-curvature="0"
           id="path4184"
           d="m -50.848027,350.23673 c 0.690446,0.51495 1.380893,0.96377 2.071339,1.16933 0.545989,1.67544 1.17561,3.25283 2.990077,3.44109 -0.220869,0.76221 -0.470972,1.50493 -1.085781,2.00451 -0.703683,0.0843 -1.356479,0.0159 -1.971114,-0.16703 -1.577576,-0.88003 -2.868015,-1.93953 -4.092565,-3.0402 0.451961,-1.35555 1.191531,-2.45225 2.088044,-3.4077 z"
           style="display:inline;opacity:0.96000001;fill:#fef0b6;fill-opacity:1;stroke:none;stroke-width:0.1;stroke-linecap:butt;stroke-linejoin:miter;stroke-opacity:1" />
        <path
           sodipodi:nodetypes="cccccc"
           inkscape:connector-curvature="0"
           id="path4186"
           d="m -50.731097,351.03855 c -0.280712,0.0761 -1.445383,2.28479 -1.336346,2.37202 1.043258,1.02094 2.058101,1.7009 3.056895,2.18826 0.287841,-0.40693 0.571196,-0.80041 0.902033,-1.33633 -1.547681,-2.15959 -1.082988,-1.697 -1.286235,-2.10476 -0.620493,-0.23303 -0.916118,-0.72595 -1.336347,-1.11919 z"
           style="display:inline;opacity:0.96000001;fill:#f1c594;fill-opacity:1;stroke:none;stroke-width:0.1;stroke-linecap:butt;stroke-linejoin:miter;stroke-opacity:1" />
        <path
           sodipodi:nodetypes="ccccc"
           inkscape:connector-curvature="0"
           id="path4188"
           d="m -48.643053,356.31712 c 0.44707,-0.58063 0.901972,-1.15082 1.219417,-1.90428 0.489994,0.31086 0.979989,0.57541 1.469983,0.53453 -0.295754,0.62421 -0.510193,1.35007 -0.968854,1.77065 -0.590239,-0.0667 -1.251048,0.1488 -1.720546,-0.4009 z"
           style="display:inline;opacity:0.96000001;fill:#e99a67;fill-opacity:1;stroke:none;stroke-width:0.1;stroke-linecap:butt;stroke-linejoin:miter;stroke-opacity:1" />
        <path
           sodipodi:nodetypes="ccccccc"
           inkscape:connector-curvature="0"
           id="path4190"
           d="m -53.318266,354.33426 c -0.440435,0.95808 -0.965734,1.85087 -0.850445,3.23643 0.785364,1.0222 1.589946,2.03312 3.63802,2.31511 0.543341,-0.10495 1.086681,-0.0354 1.630022,-0.37799 0.734937,-0.45412 1.098398,-1.27971 1.488281,-2.07888 -0.616253,-10e-4 -1.212654,0.0473 -1.913504,-0.16537 -1.640727,-0.97643 -2.777477,-1.95287 -3.992374,-2.9293 z"
           style="fill:#f3e0a9;fill-opacity:1;stroke:none;stroke-width:0.1;stroke-linecap:butt;stroke-linejoin:miter;stroke-opacity:1" />
        <path
           sodipodi:nodetypes="ccccc"
           inkscape:connector-curvature="0"
           id="path4192"
           d="m -53.019592,355.73247 c -0.318683,0.43302 -0.510714,0.99268 -0.517834,1.73726 0.907603,0.78329 1.815205,1.46074 2.722808,1.67044 0.464996,-0.35766 0.761892,-0.96747 1.052373,-1.58691 -1.381674,-1.10008 -2.248636,-1.34231 -3.257347,-1.82079 z"
           style="fill:#f1c594;fill-opacity:1;stroke:none;stroke-width:0.1;stroke-linecap:butt;stroke-linejoin:miter;stroke-opacity:1" />
        <path
           sodipodi:nodetypes="ccccc"
           inkscape:connector-curvature="0"
           id="path4194"
           d="m -49.361341,357.40292 c -0.473007,0.67388 -0.73122,1.45516 -1.085781,2.18826 -0.09489,0.0633 1.354672,-0.0289 1.403165,-0.13364 0.19508,0.12462 1.517293,-1.79342 1.436574,-1.88759 -0.589719,0.003 -1.185852,0.0103 -1.753958,-0.16703 z"
           style="display:inline;fill:#f1a16c;fill-opacity:1;stroke:none;stroke-width:0.1;stroke-linecap:butt;stroke-linejoin:miter;stroke-opacity:1" />
      </g>
    </g>
    <g
       transform="translate(178.53604,-153.94725)"
       id="g4228"
       inkscape:label="toolbox"
       style="display:inline;opacity:0.96000001">
      <path
         inkscape:label="toolbox_outline"
         sodipodi:nodetypes="cccccccccccccc"
         inkscape:connector-curvature="0"
         id="path4200"
         d="m 27.395127,368.82869 -4.075861,1.9377 0.668174,3.8754 -3.474504,1.8709 c -1.728637,2.16623 -1.352486,3.2099 -1.26953,4.40994 l 3.534233,9.95558 6.670202,1.47026 23.137437,-12.16082 -4.075859,-10.89126 c -1.049637,-1.75669 -2.300061,-3.3126 -5.211757,-3.20723 l -2.138156,1.00227 -0.467722,-1.73725 c -0.322681,-0.65972 -0.703346,-1.27435 -2.138156,-1.06908 z"
         style="display:inline;fill:#000000;stroke:none;stroke-width:0.1;stroke-linecap:butt;stroke-linejoin:miter;stroke-opacity:1" />
      <path
         inkscape:label="toolbox_background"
         inkscape:connector-curvature="0"
         id="path4202"
         d="m 21.355655,382.80059 5.433407,0.75594 9.543899,-4.58295 0.566965,1.74815 1.842633,1.03942 1.559152,-0.75594 0.377976,-1.27566 -0.944941,-2.26788 8.835194,-4.25223 2.126115,6.28386 -21.450149,11.67 -5.85863,-1.13392 -2.362351,-7.18153 z"
         style="display:inline;fill:#c70a13;fill-opacity:1;stroke:none;stroke-width:0.26458332px;stroke-linecap:butt;stroke-linejoin:miter;stroke-opacity:1" />
      <path
         inkscape:connector-curvature="0"
         id="path4204"
         d="m 21.497395,383.50658 2.131033,6.22594 5.097762,0.96104 -2.172816,-6.56023 z"
         style="display:inline;fill:#ff5560;fill-opacity:1;stroke:none;stroke-width:0.08843931;stroke-linecap:butt;stroke-linejoin:miter;stroke-opacity:1" />
      <path
         inkscape:connector-curvature="0"
         id="path4206"
         d="m 22.182477,383.76915 1.393788,4.46484 3.732516,0.14174 -1.086683,-3.99238 z"
         style="display:inline;fill:#fb434c;fill-opacity:1;stroke:none;stroke-width:0.26458332px;stroke-linecap:butt;stroke-linejoin:miter;stroke-opacity:1" />
      <path
         sodipodi:nodetypes="cccccccccccccccccccccccccc"
         inkscape:connector-curvature="0"
         id="path4208"
         d="m 20.830697,382.12865 5.580389,0.76642 9.638393,-4.6302 -0.755952,-1.79539 0.14174,-1.13392 2.031622,-1.13393 1.27567,0.70872 0.661458,1.79538 8.882441,-4.34674 -1.464657,-3.40177 c -0.929768,-0.67881 -1.433112,-1.84495 -3.165552,-1.60642 l -2.22061,0.85045 0.141742,0.99219 -2.504093,1.22843 -0.708705,-0.33072 -4.819198,2.74031 -0.188986,0.99219 c -1.023685,0.83334 -2.047371,0.98008 -3.071056,1.41742 -1.015862,-0.26773 -1.528396,-0.53546 -2.267857,-0.80319 l -0.18899,0.23622 0.566965,0.51972 c -0.593235,0.43886 -1.31022,0.77871 -2.126116,1.03944 -0.463424,0.2152 -1.215253,0.0339 -2.031622,-0.23624 l -3.165551,1.74815 c -0.42735,0.3975 -0.780964,0.93264 -0.549768,2.55943 z"
         style="display:inline;fill:#c70a13;fill-opacity:1;stroke:none;stroke-width:0.26458332px;stroke-linecap:butt;stroke-linejoin:miter;stroke-opacity:1" />
      <path
         inkscape:connector-curvature="0"
         id="path4210"
         d="m 22.914806,377.31993 c 0,0 0.614211,-0.75594 0.897694,-0.56695 0.283482,0.18897 2.362351,0.23622 2.362351,0.23622 l 2.504093,-1.55913 1.606399,0.47246 3.449032,-1.55916 0.803198,-1.55914 3.921503,-1.98437 1.086684,0.18896 2.267854,-1.18115 0.472472,-1.27569 2.362351,-0.51972 1.086681,0.42524 0.661458,1.4174 1.039434,1.98437 -7.512275,4.01601 -0.708705,-1.46466 -0.519718,-0.47246 -0.944941,-0.2835 -0.519716,0.0473 -2.315104,1.32292 -0.141742,0.6142 -0.04725,0.42524 v 0.42521 l 0.188989,0.23625 0.425223,1.27566 -8.693452,4.39399 -0.755953,-2.17337 -0.09449,-1.03944 -0.47247,-0.42521 -0.661459,-0.47249 -1.039434,-0.75595 z"
         style="fill:#af0a11;fill-opacity:1;stroke:none;stroke-width:0.26458332px;stroke-linecap:butt;stroke-linejoin:miter;stroke-opacity:1" />
      <path
         sodipodi:nodetypes="ccccc"
         inkscape:connector-curvature="0"
         id="path4212"
         d="m 20.835937,382.09188 5.433408,0.66146 -0.708705,-2.69307 c -0.42671,-2.40758 -5.736454,-4.41829 -5.028643,0.094 z"
         style="display:inline;fill:#f8535d;fill-opacity:1;stroke:none;stroke-width:0.1;stroke-linecap:butt;stroke-linejoin:miter;stroke-opacity:1" />
      <path
         style="display:inline;fill:#fb434c;fill-opacity:1;stroke:none;stroke-width:0.08157463;stroke-linecap:butt;stroke-linejoin:miter;stroke-opacity:1"
         d="m 21.302524,381.7265 4.432282,0.53959 -0.578124,-2.19686 c -0.348087,-1.96398 -4.67949,-3.60421 -4.102096,0.0767 z"
         id="path4214"
         inkscape:connector-curvature="0"
         sodipodi:nodetypes="ccccc" />
      <path
         inkscape:connector-curvature="0"
         id="path4216"
         d="m 27.194674,384.19669 1.403164,4.07585 4.209495,0.26726 17.038433,-9.15397 -1.670433,-5.27857 -7.750818,3.4745 0.734991,1.87087 v 0.53457 0.4677 l -0.200451,0.20045 -0.400904,0.40092 -2.33861,1.20269 -0.601356,-0.0668 -0.534537,-0.26725 -0.400905,-0.26728 -0.334087,-0.60135 -0.400904,-1.06907 z"
         style="fill:#af0a11;fill-opacity:1;stroke:none;stroke-width:0.26458332px;stroke-linecap:butt;stroke-linejoin:miter;stroke-opacity:1" />
      <path
         inkscape:connector-curvature="0"
         id="path4218"
         d="m 36.24843,376.11177 -0.100227,0.33408 0.935445,1.93771 0.567946,0.13364 1.236123,-0.63476 0.200451,-0.63477 -0.935442,-1.87089 -0.400905,-0.26726 z"
         style="fill:#e0e0e0;fill-opacity:1;stroke:none;stroke-width:0.26458332px;stroke-linecap:butt;stroke-linejoin:miter;stroke-opacity:1" />
      <path
         style="fill:#949494;fill-opacity:1;stroke:none;stroke-width:0.14985943px;stroke-linecap:butt;stroke-linejoin:miter;stroke-opacity:1"
         d="m 36.84236,376.41598 -0.05677,0.18922 0.529834,1.09752 0.321683,0.0757 0.700137,-0.35952 0.113535,-0.35953 -0.529832,-1.05967 -0.227072,-0.15138 z"
         id="path4220"
         inkscape:connector-curvature="0" />
      <path
         inkscape:connector-curvature="0"
         id="path4222"
         d="m 37.317508,379.15196 1.904296,-1.13588 0.734991,1.60361 -0.167045,0.66818 -0.935442,0.4009 -0.868627,-0.10023 z"
         style="fill:#dedede;fill-opacity:1;stroke:none;stroke-width:0.26458332px;stroke-linecap:butt;stroke-linejoin:miter;stroke-opacity:1" />
      <path
         style="fill:#959595;fill-opacity:1;stroke:none;stroke-width:0.17197898px;stroke-linecap:butt;stroke-linejoin:miter;stroke-opacity:1"
         d="m 37.779384,379.22212 1.237791,-0.73832 0.477744,1.04235 -0.108579,0.43431 -0.608037,0.26059 -0.564607,-0.0652 z"
         id="path4224"
         inkscape:connector-curvature="0" />
      <path
         style="display:inline;fill:#797979;fill-opacity:1;stroke:none;stroke-width:0.26458332px;stroke-linecap:butt;stroke-linejoin:miter;stroke-opacity:1"
         d="m 24.087666,371.10048 0.835217,-0.10023 0.935444,4.40995 -0.801809,-0.23387 z"
         id="path4226"
         inkscape:connector-curvature="0" />
    </g>
    <g
       transform="translate(178.53604,-153.94725)"
       id="g4236"
       inkscape:label="tangan_kanan"
       style="display:inline;opacity:0.96000001">
      <path
         inkscape:label="tangan_kanan_dasar"
         sodipodi:nodetypes="cccccccccccccc"
         inkscape:connector-curvature="0"
         id="path4230"
         d="m 13.898015,349.65208 c -1.655139,2.17157 -1.406124,4.34314 -1.503391,6.51471 5.15432,0.92957 9.926349,3.00602 13.330068,9.18739 -0.597948,1.66393 -0.406399,3.17544 -0.410689,4.48318 0.806666,-0.26648 1.589709,-1.19735 2.396375,-1.06913 0.619446,0.50165 1.07894,1.23434 1.13393,2.55132 -0.500828,0.49607 -1.124304,0.68553 -1.748141,0.87408 0.931556,2.05842 3.837872,2.40131 5.64602,0.73234 0.308747,-0.64407 0.668714,-1.23693 0.614212,-2.24425 l 0.425222,0.51972 3.543528,-1.67727 c 0.467886,-0.86233 0.714909,-1.91791 0.472469,-3.40177 -1.283743,-1.6503 -3.00893,-3.36366 -4.913691,-5.10268 -3.351052,-6.22986 -8.027143,-11.37362 -18.985912,-11.36764 z"
         style="display:inline;fill:#fbae76;fill-opacity:1;stroke:none;stroke-width:0.1;stroke-linecap:butt;stroke-linejoin:miter;stroke-opacity:1" />
      <path
         inkscape:label="tangan_kanan_dark_upper"
         inkscape:connector-curvature="0"
         id="path4232"
         d="m 14.265511,350.52071 -1.202713,3.30748 0.100226,1.77064 2.973374,0.40092 2.405425,1.00225 2.171565,1.33635 1.102487,0.83521 1.937704,2.03793 2.138156,3.14042 2.706103,4.00905 1.57021,2.97338 3.80859,-1.43658 -0.06682,-0.83521 3.006783,-1.43658 v -1.77067 l -4.443357,-4.14266 -1.971111,-3.30748 -1.837479,-2.37202 -2.53906,-2.37201 -2.605878,-1.43656 -3.107008,-1.03568 -3.407686,-0.70157 z"
         style="display:inline;opacity:1;fill:#f1c594;fill-opacity:1;stroke:none;stroke-width:0.26458332px;stroke-linecap:butt;stroke-linejoin:miter;stroke-opacity:1" />
      <path
         inkscape:label="tangan_kanan_dark_bottom"
         sodipodi:nodetypes="cccccccccccccccccccccccc"
         inkscape:connector-curvature="0"
         id="path4234"
         d="m 12.528259,354.76362 c 8.728345,-0.54162 13.691775,6.73074 17.740016,15.90254 l 2.973371,-0.96885 -0.03341,-0.7684 3.808593,-2.20498 -0.133636,2.10476 -2.839738,1.63703 -0.634765,-0.26729 -1.00226,0.63477 -0.300681,1.57022 -1.703842,0.70157 -2.372016,-0.60135 1.503391,-1.43658 -1.169304,-2.60588 -0.701583,-0.4677 -1.570209,0.60134 0.233861,-3.70837 -1.937704,-2.70611 -1.937704,-2.47224 -2.505652,-1.83748 -3.474503,-1.50339 -3.240644,-0.56795 -0.701582,-0.0668 z"
         style="display:inline;opacity:1;fill:#ed9c68;fill-opacity:1;stroke:none;stroke-width:0.1;stroke-linecap:butt;stroke-linejoin:miter;stroke-opacity:1" />
    </g>
    <path
       style="display:inline;opacity:0.96000001;fill:#000000;stroke:none;stroke-width:0.26458332px;stroke-linecap:butt;stroke-linejoin:miter;stroke-opacity:1"
       d="m 180.85115,195.82768 -6.85082,3.7325 -1.98438,1.03944 -3.40178,1.4174 -0.47247,-0.0472 -0.33073,-0.75597 -0.61421,-1.03944 -0.0945,-0.0945 -1.98438,0.75594 -1.84263,2.31511 -1.08668,1.88989 -0.94494,2.69309 -0.85045,4.67744 2.36235,-0.18897 3.68527,-0.47249 0.56696,-0.18897 -0.51971,2.8348 0.0945,0.37798 5.05543,-0.18899 h 0.0945 l 0.14174,5.71691 0.14174,2.07885 0.18899,1.0867 1.65365,0.23622 6.89806,0.61421 2.88207,0.0473 1.13393,-0.0473 -1.46466,-4.34671 -0.0945,-2.69309 0.42522,-4.44122 0.70871,-3.35454 1.32291,-3.77976 0.56697,-1.55916 0.18899,-0.8032 1.41741,-7.84299 z"
       id="path4238"
       inkscape:connector-curvature="0"
       inkscape:label="outline_baju_kanan" />
    <g
       transform="translate(178.53604,-153.94725)"
       id="g4248"
       inkscape:label="baju_putih_kanan"
       style="display:inline;opacity:0.96000001">
      <path
         inkscape:label="baju_puth_dasar_kanan"
         inkscape:connector-curvature="0"
         id="path4240"
         d="m 12.992931,349.96392 -0.897693,1.70087 -0.330729,1.0867 -0.141741,1.03942 -0.141741,1.03944 v 1.03944 l 0.141741,0.47247 -2.8820688,0.33073 -1.7008927,0.23624 -1.5119048,0.47247 -0.8504465,0.18899 -0.7087052,-0.61423 0.3307291,0.61423 0.5669643,0.94493 0.3779763,0.189 0.3779761,0.0945 0.377976,0.0945 0.5669645,-0.33073 0.5669643,-0.14176 -0.6614583,1.46468 -0.6142115,1.60639 -0.4724701,1.74813 -0.6142114,2.12611 -0.3307292,1.51191 -0.141741,1.08669 -0.2834822,2.26785 v 2.22062 l 0.094494,1.74813 0.1417413,1.84264 0.094494,0.70871 -2.409598,-0.23624 -2.22061015,-0.0945 -2.64583345,-0.0473 -1.7008927,-0.33073 h -0.3307291 l -0.094494,-0.94493 -0.047247,-1.41743 -0.1417413,-2.74031 -0.094494,-2.31511 0.047247,-1.98437 v -1.27569 l 0.3779761,-1.18116 -0.9449403,-0.0945 0.236235,-1.27567 0.7087053,-2.22062 1.1811756,-1.98437 1.3701637,-2.03161 1.65364586,-1.84263 1.79538684,-1.65365 1.74814,-1.32292 1.6536458,-0.85045 -1.0394347,1.65365 1.4174108,-0.75597 1.2284225,-0.6142 2.3623513,-0.51972 2.7403277,-0.66146 z"
         style="display:inline;fill:#ffffff;fill-opacity:1;stroke:none;stroke-width:0.26458332px;stroke-linecap:butt;stroke-linejoin:miter;stroke-opacity:1" />
      <path
         inkscape:connector-curvature="0"
         id="path4242"
         d="m 6.3783482,356.24777 4.0632438,-1.37017 0.141741,0.8032 z"
         style="fill:#c2c2c2;fill-opacity:1;stroke:none;stroke-width:0.26458332px;stroke-linecap:butt;stroke-linejoin:miter;stroke-opacity:1" />
      <path
         inkscape:connector-curvature="0"
         id="path4244"
         d="m 3.8742559,358.75184 1.937128,0.85045 -1.0866815,2.69309 -1.1339285,3.77976 -0.4252233,3.16555 0.047247,3.63803 0.2362351,2.78757 -4.252232,-0.28348 0.51971725,-2.50409 0.47247024,-3.26004 0.56696429,-2.64583 0.99218752,-2.92934 0.8976934,-2.17334 1.2284226,-2.64583 z"
         style="fill:#cccccc;fill-opacity:1;stroke:none;stroke-width:0.26458332px;stroke-linecap:butt;stroke-linejoin:miter;stroke-opacity:1" />
      <path
         inkscape:connector-curvature="0"
         id="path4246"
         d="m 3.7325149,358.70462 -2.0316221,4.06323 -1.22842256,3.44903 -0.66145833,2.55135 -0.66145832,3.49628 -0.37797619,2.45684 -0.094494,0.70872 h 0.99218744 l 0.47247023,-2.83483 0.47247024,-2.97656 0.70870529,-3.4018 1.1339286,-2.83483 0.8031995,-2.26785 0.7559522,-1.46465 0.1889881,-0.6142 z"
         style="fill:#d2d2d2;fill-opacity:1;stroke:none;stroke-width:0.26458332px;stroke-linecap:butt;stroke-linejoin:miter;stroke-opacity:1" />
    </g>
    <g
       transform="translate(178.53604,-153.94725)"
       id="g4254"
       inkscape:label="tali_baju_kanan"
       style="display:inline;opacity:0.96000001">
      <path
         inkscape:connector-curvature="0"
         id="path4250"
         d="m -0.33072916,352.51524 -2.40959824,1.46466 -1.6536458,1.60642 -1.6063986,1.65364 -1.2756698,1.88987 -1.4174107,2.07888 -1.0394344,1.98438 -0.6142113,2.07885 -0.425223,1.74813 0.141741,0.189 1.8898808,-0.0472 1.0866816,-0.37799 0.1417409,-0.66145 0.6142112,-2.97657 0.9449406,-2.88208 0.9449406,-2.17336 1.4646576,-2.12612 1.2284226,-1.4174 1.55915172,-1.32291 z"
         style="fill:#137bc0;fill-opacity:1;stroke:none;stroke-width:0.26458332px;stroke-linecap:butt;stroke-linejoin:miter;stroke-opacity:1" />
      <path
         inkscape:connector-curvature="0"
         id="path4252"
         d="m -9.5911457,366.31139 0.6142114,-2.40962 0.6614583,-1.98437 0.8976934,-1.46466 1.5591518,-2.26784 -1.9371281,4.016 -0.4252233,1.88987 -0.6142111,1.98437 z"
         style="display:inline;fill:#106caa;fill-opacity:1;stroke:none;stroke-width:0.26458332px;stroke-linecap:butt;stroke-linejoin:miter;stroke-opacity:1" />
    </g>
    <g
       transform="translate(178.53604,-153.94725)"
       id="g4260"
       inkscape:label="baju_putih_tengah_leher"
       style="display:inline;opacity:0.96000001">
      <path
         inkscape:connector-curvature="0"
         id="path4256"
         d="m -12.260603,355.56269 -1.039434,0.99219 -0.755952,1.25203 -0.614212,0.94493 -0.519717,0.99219 -0.259859,0.85045 -0.614211,1.37017 -0.283482,1.03945 -0.283482,1.20478 -0.04725,0.61423 0.09449,0.47246 1.252046,-0.14174 2.126116,-0.0473 2.078869,-0.59058 0.236235,-1.29931 0.590588,-1.65365 0.7323289,-1.48828 0.921317,-1.13392 0.8031993,-1.29929 1.1103049,-1.29929 0.5669645,-0.77957 -1.2992933,0.51972 -1.8426338,0.68506 -1.2756695,0.33073 -0.685082,-0.0472 -0.614211,-0.18899 -0.236235,-0.37799 -0.09449,-0.25984 0.212611,-0.51972 -0.165365,-0.0945 z"
         style="fill:#ffffff;fill-opacity:1;stroke:none;stroke-width:0.26458332px;stroke-linecap:butt;stroke-linejoin:miter;stroke-opacity:1" />
      <path
         inkscape:connector-curvature="0"
         id="path4258"
         d="m -13.016555,357.78328 0.543341,0.47247 0.826823,0.14176 0.755952,-0.0235 0.543341,-0.0945 0.8504464,-0.18899 0.6850819,-0.54333 -0.2598587,0.70869 -0.7323288,0.44887 -0.9921878,0.18899 -1.275669,0.0945 -0.590588,-0.3071 -0.566965,-0.49617 z"
         style="fill:#cccccc;fill-opacity:1;stroke:none;stroke-width:0.26458332px;stroke-linecap:butt;stroke-linejoin:miter;stroke-opacity:1" />
    </g>
    <g
       transform="translate(178.53604,-153.94725)"
       id="g4280"
       inkscape:label="baju_sepatu"
       style="display:inline;opacity:0.96000001">
      <path
         inkscape:connector-curvature="0"
         id="path4262"
         transform="scale(0.26458333)"
         d="m -44.447266,1383.1387 -19.480468,2.5957 0.355468,16.6074 6.429688,-0.7148 5.357422,-0.8926 1.427734,-4.2852 1.607422,-0.3574 0.177734,8.0352 -14.46289,2.8574 5.535156,27.6777 2.857422,9.2871 1.607422,2.1426 11.427734,-3.75 15.714844,-3.9297 10.357422,-1.25 9.9999998,-1.6074 7.8574218,-1.0703 -18.0371096,4.4648 -18.75,4.1055 -14.285156,5.1797 -15.357422,6.25 -14.285156,6.9648 -15,7.5 -12.322262,7.8555 -12.67774,9.1074 -8.25586,6.3242 -7.82812,6.5645 -5.93555,5.1777 -5.17578,6.0606 -5.80859,6.1875 -3.03125,4.041 -0.63086,1.0097 5.05078,4.42 5.42969,5.4297 5.80859,6.5664 5.17773,4.9238 5.30274,5.4297 6.06054,7.1972 3.53516,3.9141 3.78906,4.041 7.4043,-11.2148 14.822266,-18.2149 12.142578,-11.25 11.607422,-8.75 14.46289,-8.75 8.929688,-3.75 26.048828,-9.9531 2.566406,4.2012 6.3125,6.5664 8.8398439,11.1113 8.8378906,11.1133 8.3339845,8.332 11.111328,9.5977 14.396484,7.8281 10.857422,6.5664 18.941407,4.041 16.667968,0.7578 H 99.5 l 0.251953,-1.0117 0.253907,-3.5351 -0.253907,-8.0801 -0.251953,-8.334 -1.009766,-7.3242 -1.263672,-9.3438 -1.513671,-6.0605 -11.617188,1.5156 -16.416015,-3.5371 -10.859376,-4.293 -10.353515,-5.5547 -10.605469,-10.3554 -4.041016,-4.293 -0.253906,-3.7871 v -3.2832 l 0.50586,-8.8379 1.009765,-7.5762 -2.271484,-6.3144 h -0.650391 l 0.650391,-2.2735 -7.072266,-18.9394 -4.292969,-2.7774 -4.544921,-2.0214 6.060547,-0.7579 -0.757813,-4.039 -33.335937,-4.5469 -9.847657,-2.0195 -1.515625,-29.043 -0.757812,-4.041 -20.203125,1.5156 z"
         style="display:inline;fill:#1279bf;fill-opacity:1;stroke:none;stroke-width:0.99999994px;stroke-linecap:butt;stroke-linejoin:miter;stroke-opacity:1" />
      <path
         style="display:inline;fill:#4c4c4c;fill-opacity:1;stroke:none;stroke-width:0.1;stroke-linecap:butt;stroke-linejoin:miter;stroke-opacity:1"
         d="m 27.308781,412.28274 -0.283483,1.4174 c 0.622436,3.5607 4.692072,4.46862 8.031993,5.48066 l 0.377976,-3.87427 c -4.498693,1.32668 -7.105364,-1.66578 -8.126486,-3.02379 z"
         id="path4264"
         inkscape:connector-curvature="0"
         sodipodi:nodetypes="ccccc" />
      <path
         inkscape:connector-curvature="0"
         id="path4266"
         d="m -17.10525,366.75734 1.870887,-0.0668 0.06682,3.94222 -1.469982,0.33409 z"
         style="fill:#79bce8;fill-opacity:1;stroke:none;stroke-width:0.26458332px;stroke-linecap:butt;stroke-linejoin:miter;stroke-opacity:1" />
      <path
         inkscape:connector-curvature="0"
         id="path4268"
         d="m -16.503893,372.37 1.069078,0.0668 1.336348,8.88672 z"
         style="fill:#79bce8;fill-opacity:1;stroke:none;stroke-width:0.26458332px;stroke-linecap:butt;stroke-linejoin:miter;stroke-opacity:1" />
      <path
         inkscape:connector-curvature="0"
         id="path4270"
         d="m -15.033911,366.95779 -0.06682,3.4077 1.804069,-0.46773 0.133635,-0.33409 0.868626,0.0668 v 2.40543 l -2.80633,0.33409 1.069078,9.35442 8.4189901,-1.80406 0.6013564,-0.13364 -1.4699824,-0.4677 -0.668174,-0.80182 -0.6013564,-3.74177 -0.200452,-3.14041 0.1336347,-2.73953 -3.5413214,0.60137 -0.801808,-0.60137 -0.467722,-0.40089 0.133635,-1.93771 z"
         style="fill:#116dab;fill-opacity:1;stroke:none;stroke-width:0.26458332px;stroke-linecap:butt;stroke-linejoin:miter;stroke-opacity:1" />
      <path
         sodipodi:nodetypes="cccccccccccccccccc"
         inkscape:connector-curvature="0"
         id="path4272"
         d="m 0.77314846,391.96275 1.68369674,3.87802 4.063244,5.29166 4.6302078,3.21281 5.102679,2.26785 3.590774,1.13393 3.401785,0.47246 2.645834,0.0945 -0.944941,-6.04763 -3.307291,0.47246 -4.819197,-1.2284 -4.630208,-2.36236 -2.7403273,-2.45684 -1.8898809,-2.26785 0.4724702,-4.34674 0.283482,-1.79538 -0.3263879,-0.44283 c -1.9244304,2.74873 -4.7252271,2.99356 -7.21593964,4.12434 z"
         style="fill:#1a73ae;fill-opacity:1;stroke:none;stroke-width:0.26458332px;stroke-linecap:butt;stroke-linejoin:miter;stroke-opacity:1" />
      <path
         sodipodi:nodetypes="ccccccccccccccccccccccccccccccccccccccccccc"
         inkscape:connector-curvature="0"
         id="path4274"
         transform="scale(0.26458333)"
         d="m -23.486328,1427.8379 -0.251953,4.041 12.375,3.2832 16.4140622,-0.5059 -0.2519531,3.5352 -1.2636719,0.5059 -27.0214842,8.082 -26.263672,12.373 -21.71875,13.8907 -19.445312,13.3847 -16.919918,16.6661 -14.9004,16.9218 -12.37304,17.4239 19.69726,22.4765 3.28321,-6.8183 11.61718,-13.6368 13.130864,-13.1328 11.113281,-9.5957 16.162109,-11.1133 15.404297,-6.3125 24.765625,-10.6933 8.861328,10.6914 10.35742225,13.9297 11.07226575,12.5 13.927734,13.2148 11.78711,6.7852 12.142578,6.4277 7.142578,4.2871 10,2.1426 32.857422,1.7852 L 97.5,1545.7344 71.785156,1542.877 41.427734,1531.4492 20,1513.5918 12.143415,1502.5195 c 0.415402,-5.6001 -1.752446,-16.2648 11.255859,-22.5376 3.503079,-1.6895 6.846411,-11.1131 5.389788,-19.5659 l -8.080078,-21.4668 -5.55664,-1.0097 0.251953,-2.0196 3.283203,-0.5058 -0.251953,-4.0411 z"
         style="display:inline;fill:#00395e;fill-opacity:1;stroke:none;stroke-width:0.99999994px;stroke-linecap:butt;stroke-linejoin:miter;stroke-opacity:1" />
      <path
         inkscape:connector-curvature="0"
         id="path4276"
         d="m -52.727677,404.06174 4.630209,5.00819 2.078868,-1.88986 2.173361,-0.66146 2.267858,-0.66146 1.606399,0.18896 -3.212798,-3.68524 -3.685268,-0.0945 -2.173361,0.37798 -2.456847,0.75594 z"
         style="display:inline;fill:#4c4c4c;fill-opacity:1;stroke:none;stroke-width:0.26458332px;stroke-linecap:butt;stroke-linejoin:miter;stroke-opacity:1" />
      <path
         inkscape:connector-curvature="0"
         id="path4278"
         d="m -40.224064,402.43783 3.541321,3.40768 3.741774,-5.07812 4.677217,-4.81084 5.144938,-4.27633 4.677217,-3.87541 5.078121,-2.93997 4.3431297,-2.00451 -6.4812867,2.00451 -5.412207,2.53908 -6.280834,3.34086 -3.942225,3.07359 -3.541321,3.0068 -2.605879,2.40541 z"
         style="display:inline;fill:#116dab;fill-opacity:1;stroke:none;stroke-width:0.26458332px;stroke-linecap:butt;stroke-linejoin:miter;stroke-opacity:1" />
    </g>
    <g
       transform="translate(178.53604,-153.94725)"
       id="g4288"
       inkscape:label="leher">
      <path
         sodipodi:nodetypes="cccccccccc"
         inkscape:connector-curvature="0"
         id="path4282"
         d="m -11.095043,354.01074 1.9410617,-0.0823 2.071339,-1.20272 2.9399648,-1.67044 3.80859059,-2.40541 1.13589547,-1.73725 0.53453904,3.14042 -5.5458427,3.07358 -6.0493469,2.99128 z"
         style="display:inline;fill:#eddea8;fill-opacity:1;stroke:none;stroke-width:0.26458332px;stroke-linecap:butt;stroke-linejoin:miter;stroke-opacity:1" />
      <path
         inkscape:connector-curvature="0"
         id="path4284"
         d="m -4.6538319,351.57031 0.5669643,1.58277 5.5279018,-3.1183 -0.47247022,-3.07105 z"
         style="display:inline;fill:#e79865;fill-opacity:1;stroke:none;stroke-width:0.26458332px;stroke-linecap:butt;stroke-linejoin:miter;stroke-opacity:1" />
      <path
         inkscape:connector-curvature="0"
         id="path4286"
         d="m -10.276228,354.49962 0.5905882,0.0945 5.1026784,-2.48047 3.2364212,-2.24425 1.60639883,-1.46465 0.47247022,1.44102 -4.98456105,2.74035 -5.6696427,2.66946 z"
         style="fill:#c07245;fill-opacity:1;stroke:none;stroke-width:0.26458332px;stroke-linecap:butt;stroke-linejoin:miter;stroke-opacity:1" />
    </g>
    <g
       transform="matrix(1.308809,0,0,1.308809,573.25477,-528.74896)"
       id="g4302">
      <path
         style="font-style:normal;font-variant:normal;font-weight:normal;font-stretch:normal;font-size:10.58333302px;line-height:1.25;font-family:Ubuntu;-inkscape-font-specification:Ubuntu;letter-spacing:-4.51114559px;word-spacing:0px;fill:#000000;fill-opacity:1;stroke:none;stroke-width:0.26458332"
         d="m -301.89062,578.91992 c -3.33038,-0.40153 -6.51952,4.87286 -4.76312,6.26145 0.29846,0.83104 -4.71935,6.50685 -0.30915,5.42801 5.89194,1.30517 10.27778,-2.72405 11.30973,0.92669 1.19822,1.87538 6.67047,1.86485 7.97347,-0.98334 5.83677,0.33228 11.79608,-0.1329 17.67578,0.0566 1.27538,-2.94251 2.51473,-10.02852 -2.77929,-9.59766 -4.38357,0.28619 -8.70982,-0.0195 -13.06641,0.10937 0.81699,-3.67173 -9.23381,-3.10886 -11.0957,0.13672 -0.74637,-1.99658 -3.03935,-2.49871 -4.94531,-2.33789 z m 16.79492,6.67188 c 1.6228,0.62083 0.36509,0.90301 0,0 z m 1.11718,1.00976 c 0.69607,1.5277 -0.93513,0.0641 0,0 z"
         id="path4290"
         inkscape:connector-curvature="0" />
      <path
         style="font-style:normal;font-variant:normal;font-weight:normal;font-stretch:normal;font-size:5.99081039px;line-height:1.25;font-family:Ubuntu;-inkscape-font-specification:Ubuntu;letter-spacing:-2.55358267px;word-spacing:0px;fill:#000000;fill-opacity:1;stroke:none;stroke-width:0.14977024"
         d="m -309.77545,589.98713 c -4.86962,0.15357 -5.5899,8.60696 -0.10547,8.42579 3.69708,-0.84642 9.68914,1.60126 11.29687,-1.83008 1.21868,0.30766 2.40973,2.92029 6.64649,1.76172 4.31956,0.0931 8.74536,-0.0204 12.73047,-0.15625 3.29125,0.55197 7.31754,-0.0868 10.84375,0.15625 0.0532,-2.36745 4.43595,-2.71727 3.38281,-5.90235 -1.46163,-4.48065 -8.19766,-1.53999 -10.53516,-2.13281 -2.43962,-0.68757 -4.41632,0.58337 -6.8125,-0.29883 -9.50785,0.0742 -17.9844,0.20838 -27.44726,-0.0234 z"
         id="path4292"
         inkscape:connector-curvature="0"
         sodipodi:nodetypes="ccccccccccc" />
      <text
         id="text4296"
         y="588.60858"
         x="-306.3497"
         style="font-style:normal;font-variant:normal;font-weight:normal;font-stretch:normal;font-size:10.58333302px;line-height:1.25;font-family:Ubuntu;-inkscape-font-specification:Ubuntu;letter-spacing:-4.51114559px;word-spacing:0px;fill:#ffffff;fill-opacity:1;stroke:none;stroke-width:0.26458332"
         xml:space="preserve"><tspan
           style="font-style:italic;font-variant:normal;font-weight:bold;font-stretch:normal;font-family:'Arial Black';-inkscape-font-specification:'Arial Black, ';letter-spacing:0px;fill:#ffffff;stroke-width:0.26458332"
           y="588.60858"
           x="-306.3497"
           id="tspan4294"
           sodipodi:role="line">24jam</tspan></text>
      <text
         id="text4300"
         y="596.41541"
         x="-312.04239"
         style="font-style:normal;font-variant:normal;font-weight:normal;font-stretch:normal;font-size:5.99081039px;line-height:1.25;font-family:Ubuntu;-inkscape-font-specification:Ubuntu;letter-spacing:-2.55358267px;word-spacing:0px;fill:#ffffff;fill-opacity:1;stroke:none;stroke-width:0.14977024"
         xml:space="preserve"><tspan
           style="font-style:italic;font-variant:normal;font-weight:bold;font-stretch:normal;font-family:Arial;-inkscape-font-specification:Arial;letter-spacing:0px;fill:#ffffff;stroke-width:0.14977024"
           y="596.41541"
           x="-312.04239"
           id="tspan4298"
           sodipodi:role="line">SIAP TANGGAP</tspan></text>
    </g>
  </g>
  <path
     style="opacity:0.08999999;fill:#1bb1dc;stroke-width:1.80985808"
     inkscape:connector-curvature="0"
     id="path2364"
     d="m 1108.1432,410.76943 c 0,0 0,0.14479 0,0.21718 a 0.27147871,0.27147871 0 0 0 0,0.10857 c 0,0.52485 -0.1448,1.04972 -0.2352,1.57457 -0.6696,4.27127 -1.466,8.56063 -2.4251,12.85 -6.5337,29.3016 -19.9086,58.33171 -37.808,84.57465 -0.7058,1.01353 -1.4117,2.02705 -2.1356,3.02248 -1.3756,1.97274 -2.7692,3.90929 -4.199,5.84583 -0.9953,1.32121 -1.9908,2.6424 -3.0224,3.96359 a 282.33786,282.33786 0 0 1 -22.6956,26.00767 c -4.416,4.45225 -9.0493,8.75971 -13.6281,12.86808 l -2.0272,1.80986 q -3.7465,3.25775 -7.6014,6.33451 c -1.1039,0.88683 -2.226,1.80986 -3.3482,2.6243 l -1.9547,1.52027 -1.3936,1.03163 c -1.2488,0.95922 -2.5157,1.80985 -3.8007,2.80527 l -0.9049,0.63346 c -3.02238,2.15373 -6.06306,4.23506 -9.15791,6.244 a 224.60338,224.60338 0 0 1 -20.43326,11.76409 q -4.86851,2.4795 -9.79134,4.65133 -5.97253,2.66048 -12.03555,4.86851 c -1.08591,0.41627 -2.18992,0.79635 -3.29394,1.19451 -3.09486,1.06782 -6.2259,2.06324 -9.33887,2.96817 l -1.59267,0.47056 -0.79633,0.21719 v 0 l -1.91846,0.52486 A 245.97781,245.97781 0 0 1 904.299,617.3647 l -1.55648,0.23529 -0.81445,0.12668 c -12.10794,1.80987 -24.1797,2.71479 -36.19711,3.31205 a 454.70875,454.70875 0 0 1 -49.68062,0 l -4.52464,-0.30769 h -0.81442 c -3.13106,-0.23528 -6.26212,-0.52485 -9.37509,-0.85063 -1.80984,-0.18098 -3.6197,-0.38006 -5.42957,-0.61535 -2.75098,-0.32578 -5.42958,-0.70585 -8.21675,-1.10402 h -0.1267 l -2.62429,-0.41626 c -2.37091,-0.38007 -4.70562,-0.77823 -7.04034,-1.2488 l -2.389,-0.43436 -3.61973,-0.74204 -0.70584,-0.14479 q -11.36592,-2.44332 -22.29746,-5.93635 l -1.66506,-0.56104 q -7.92718,-2.64239 -15.56477,-5.88205 -5.66487,-2.44331 -11.13063,-5.19429 -7.8186,-3.96359 -15.23902,-8.52443 -10.37049,-6.3526 -20.08942,-13.68252 c -8.52442,-6.35261 -16.7231,-13.19387 -24.68647,-20.28852 l -1.64697,-1.48407 -3.00436,-2.71479 A 488.10061,488.10061 0 0 1 554.27248,421.75526 q -4.12648,-7.71 -7.99958,-15.67337 c -0.79633,-1.62888 -1.57457,-3.25774 -2.35281,-4.90472 a 3.8730962,3.8730962 0 0 1 -0.18099,-0.39816 l -1.19451,-2.5338 c -3.25774,-7.02225 -6.3345,-14.2074 -9.23028,-21.48302 l -1.30309,-3.29394 -2.02703,-5.32099 -0.81445,-2.22611 q -3.74641,-10.13521 -6.98604,-20.5419 c -0.36197,-1.19452 -0.74205,-2.38902 -1.10402,-3.61973 q -1.71937,-5.64675 -3.27585,-11.36589 c -0.95921,-3.51112 -1.80984,-7.07654 -2.73288,-10.67817 -0.14479,-0.56105 -0.27148,-1.12212 -0.39818,-1.70126 -7.23941,-30.5504 -10.33427,-63.56222 -2.98625,-97.06269 0.48865,-2.28042 1.03161,-4.56085 1.64697,-6.82317 0.86873,-3.38443 1.80985,-6.76888 3.00437,-10.1533 0.25337,-0.79634 0.52484,-1.59268 0.79633,-2.38901 l 0.32577,-0.86874 c 0,-0.19908 0.12669,-0.41625 0.19909,-0.61535 a 1.2307035,1.2307035 0 0 0 0.12668,-0.36197 c 0.63345,-1.66507 1.26692,-3.33014 1.95464,-5.0133 0.68776,-1.68317 1.4117,-3.34824 2.15375,-5.01331 v 0 l 0.10857,-0.23528 c 0,-0.21719 0.19908,-0.41627 0.28957,-0.63346 0.59725,-1.30309 1.21261,-2.60618 1.80986,-3.8731 l 0.65156,-1.30308 0.18097,-0.65156 c 0.34388,-0.66964 0.70585,-1.35738 1.06782,-2.00895 a 162.88723,162.88723 0 0 1 17.51942,-26.58681 150.03723,150.03723 0 0 1 11.94508,-13.12147 129.36865,129.36865 0 0 1 20.97624,-16.79548 q 1.80987,-1.08592 3.47493,-2.11753 a 86.746497,86.746497 0 0 1 31.43723,-11.40211 c 14.37027,-2.02704 27.85372,0.30767 40.97519,3.43873 l 1.3212,0.32578 c 2.20802,0.52485 4.41605,1.08591 6.60599,1.64697 7.65569,1.93655 15.36568,3.94549 23.14807,5.66485 7.23943,1.61078 14.47888,2.98627 21.95358,3.94549 a 154.43519,154.43519 0 0 0 22.71373,1.2669 c 1.12212,0 2.28042,0 3.42063,-0.1087 a 123.52282,123.52282 0 0 0 40.72181,-8.94068 78.42115,78.42115 0 0 0 26.49632,-17.50133 59.508134,59.508134 0 0 0 4.09029,-4.705635 v 0 a 54.730108,54.730108 0 0 0 5.75533,-9.049289 c 0.50676,-0.959226 0.99542,-1.936549 1.46598,-2.895774 0,0 0,0 0,0 0.181,-0.325774 0.36198,-0.687746 0.54298,-1.031619 v 0 l 2.76907,-5.429574 v 0 c 0.10869,-0.199084 0.19908,-0.398168 0.30768,-0.579155 1.33929,-2.588097 2.67859,-5.139989 4.05407,-7.637593 a 146.38133,146.38133 0 0 1 19.58268,-28.849136 v 0 a 82.004668,82.004668 0 0 1 29.06632,-20.867661 c 1.80985,-0.778241 3.61971,-1.520277 5.62864,-2.208027 a 81.73319,81.73319 0 0 1 26.20672,-4.687526 c 1.06781,0 2.09945,0 3.13105,0 a 91.488325,91.488325 0 0 1 26.09816,4.615132 v 0 a 135.10591,135.10591 0 0 1 35.85328,18.569143 241.77893,241.77893 0 0 1 44.90256,41.246655 c 1.0497,1.230703 2.0995,2.497603 3.1311,3.764504 a 312.83397,312.83397 0 0 1 30.0254,44.287225 c 26.1707,46.36856 43.3281,100.68241 55.7074,155.99167 l 0.5973,2.6424 c 0.2896,1.3031 0.5793,2.6062 0.8507,3.89119 0.5792,2.67859 1.1583,5.42958 1.7013,8.01767 0.4162,1.97274 0.8325,3.96359 1.2307,5.93633 v 0 c 0.2895,1.4298 0.5791,2.84149 0.8506,4.28937 0.1809,0.88684 0.362,1.80985 0.5249,2.69669 a 431.88643,431.88643 0 0 1 6.5698,44.79399 c 0,0.56105 0,1.12212 0.1266,1.68317 a 246.1407,246.1407 0 0 1 -1.3393,55.56265 z" />
  <g
     id="g1738"
     style="fill:#333333"
     transform="translate(-615.1114,130.16098)">
    <path
       sodipodi:nodetypes="cccccccccccccc"
       inkscape:connector-curvature="0"
       id="path902"
       d="m 1121.9797,147.9509 h 29.3041 c 0.9496,0.0222 1.6134,-0.48031 1.6134,-1.509 v -26.13906 c 0,-3.1841 1.5175,-4.59806 4.4786,-4.59806 h 9.9724 c 3.0349,0 3.9412,2.8729 3.9412,4.47864 v 31.58925 c 0,19.22874 -14.0233,13.35804 -12.1819,22.69172 0.1613,4.14537 7.2491,2.80107 5.4938,10.98757 h -29.1409 c -1.7141,-8.72596 6.5101,-6.30854 7.6435,-9.79326 4.3487,-12.55565 -17.9686,1.95003 -22.0669,-26.60003 -0.2091,-1.10048 -0.1846,-1.10777 0.9427,-1.10777 z"
       style="fill:#333333;stroke:none;stroke-width:0.47291917px;stroke-linecap:butt;stroke-linejoin:miter;stroke-opacity:1" />
    <g
       id="g912"
       transform="matrix(2.2829415,0,0,2.2829415,956.59447,-92.253854)"
       style="fill:#333333">
      <g
         aria-label="MULYA"
         style="font-style:normal;font-variant:normal;font-weight:normal;font-stretch:normal;font-size:18.07155991px;line-height:1.25;font-family:Ubuntu;-inkscape-font-specification:Ubuntu;letter-spacing:-7.70300198px;word-spacing:0px;fill:#333333;fill-opacity:1;stroke:none;stroke-width:0.45178899"
         id="text906">
        <path
           d="m 102.92792,108.54401 q 0.32529,0.59636 0.74093,1.48186 0.43372,0.86744 0.88551,1.89752 0.46986,1.012 0.92165,2.07823 0.45179,1.06622 0.84936,2.00594 0.39758,-0.93972 0.84937,-2.00594 0.45179,-1.06623 0.90357,-2.07823 0.46987,-1.03008 0.88551,-1.89752 0.43372,-0.8855 0.75901,-1.48186 h 2.56616 q 0.18071,1.24693 0.32529,2.80109 0.16264,1.53608 0.27107,3.21673 0.1265,1.66259 0.21686,3.34324 0.10843,1.68066 0.18071,3.16253 h -2.74687 q -0.0542,-1.82523 -0.14458,-3.97575 -0.0904,-2.15051 -0.27107,-4.33717 -0.32529,0.759 -0.72286,1.68065 -0.39758,0.92165 -0.79515,1.8433 -0.3795,0.92165 -0.74093,1.77102 -0.36144,0.83129 -0.61444,1.42765 h -1.9698 q -0.253,-0.59636 -0.61443,-1.42765 -0.36143,-0.84937 -0.75901,-1.77102 -0.3795,-0.92165 -0.77707,-1.8433 -0.39758,-0.92165 -0.72287,-1.68065 -0.18071,2.18666 -0.27107,4.33717 -0.0904,2.15052 -0.14457,3.97575 h -2.746878 q 0.07229,-1.48187 0.162644,-3.16253 0.108429,-1.68065 0.216859,-3.34324 0.1265,-1.68065 0.271073,-3.21673 0.162642,-1.55416 0.343362,-2.80109 z"
           style="font-weight:bold;letter-spacing:0px;fill:#333333;stroke-width:0.45178899"
           id="path1678"
           inkscape:connector-curvature="0" />
        <path
           d="m 120.70102,121.3206 q -1.31923,0 -2.27702,-0.36143 -0.95779,-0.37951 -1.5903,-1.03008 -0.61443,-0.66865 -0.92165,-1.57223 -0.28914,-0.92165 -0.28914,-2.02401 v -7.78884 h 2.81916 v 7.55391 q 0,0.759 0.16265,1.30115 0.18071,0.52408 0.46986,0.86743 0.30721,0.32529 0.72286,0.46987 0.43372,0.14457 0.93972,0.14457 1.03008,0 1.66258,-0.63251 0.65058,-0.6325 0.65058,-2.15051 v -7.55391 h 2.81916 v 7.78884 q 0,1.10236 -0.30721,2.02401 -0.30722,0.92165 -0.93973,1.5903 -0.6325,0.65058 -1.60836,1.01201 -0.97587,0.36143 -2.31316,0.36143 z"
           style="font-weight:bold;letter-spacing:0px;fill:#333333;stroke-width:0.45178899"
           id="path1680"
           inkscape:connector-curvature="0" />
        <path
           d="m 136.94791,118.64601 v 2.42159 h -8.36713 v -12.52359 h 2.81916 v 10.102 z"
           style="font-weight:bold;letter-spacing:0px;fill:#333333;stroke-width:0.45178899"
           id="path1682"
           inkscape:connector-curvature="0" />
        <path
           d="m 141.53611,113.6944 q 0.75901,-1.28308 1.44573,-2.56616 0.68672,-1.28308 1.26501,-2.58423 h 3.10831 q -1.03008,2.02401 -2.13245,3.92152 -1.10236,1.89752 -2.33123,3.8131 v 4.78897 h -2.81916 v -4.75282 q -1.22887,-1.91559 -2.3493,-3.83117 -1.10237,-1.91559 -2.13245,-3.9396 h 3.27095 q 0.57829,1.30115 1.24694,2.58423 0.66865,1.28308 1.42765,2.56616 z"
           style="font-weight:bold;letter-spacing:0px;fill:#333333;stroke-width:0.45178899"
           id="path1684"
           inkscape:connector-curvature="0" />
        <path
           d="m 155.4611,121.0676 q -0.19879,-0.65058 -0.45179,-1.3373 -0.23493,-0.68672 -0.46986,-1.37344 h -4.87932 q -0.23493,0.68672 -0.48794,1.37344 -0.23493,0.68672 -0.43371,1.3373 h -2.9276 q 0.7048,-2.02402 1.3373,-3.74082 0.6325,-1.71679 1.22887,-3.23481 0.61443,-1.51801 1.19272,-2.87337 0.59636,-1.37344 1.22887,-2.67459 h 2.69266 q 0.61443,1.30115 1.21079,2.67459 0.59636,1.35536 1.19272,2.87337 0.61444,1.51802 1.24694,3.23481 0.63251,1.7168 1.3373,3.74082 z m -3.37938,-9.68636 q -0.0904,0.27107 -0.27108,0.74093 -0.18071,0.46986 -0.41564,1.0843 -0.23493,0.61443 -0.52408,1.35536 -0.27107,0.74094 -0.56022,1.55416 h 3.5601 q -0.28914,-0.81322 -0.56022,-1.55416 -0.27107,-0.74093 -0.52407,-1.35536 -0.23493,-0.61444 -0.41565,-1.0843 -0.18071,-0.46986 -0.28914,-0.74093 z"
           style="font-weight:bold;letter-spacing:0px;fill:#333333;stroke-width:0.45178899"
           id="path1686"
           inkscape:connector-curvature="0" />
      </g>
      <g
         aria-label="BERKAH"
         style="font-style:normal;font-variant:normal;font-weight:normal;font-stretch:normal;font-size:18.07155991px;line-height:1.25;font-family:Ubuntu;-inkscape-font-specification:Ubuntu;letter-spacing:-7.70300198px;word-spacing:0px;fill:#333333;fill-opacity:1;stroke:none;stroke-width:0.45178899"
         id="text910">
        <path
           d="m 103.77728,105.19408 q -1.03008,0 -2.06015,-0.0723 -1.01201,-0.0542 -2.114377,-0.28914 V 92.688558 q 0.867437,-0.162644 1.897517,-0.234931 1.03008,-0.09036 1.91558,-0.09036 1.19273,0 2.18666,0.180715 1.01201,0.162644 1.73487,0.57829 0.72286,0.415646 1.12044,1.102365 0.41564,0.668648 0.41564,1.662584 0,1.499939 -1.44572,2.367374 1.19272,0.451789 1.62644,1.228866 0.43372,0.777079 0.43372,1.752949 0,1.9698 -1.44573,2.96373 -1.42765,0.99394 -4.26489,0.99394 z m -1.42765,-5.620258 v 3.234808 q 0.30722,0.0361 0.66865,0.0542 0.36143,0.0181 0.79515,0.0181 1.26501,0 2.04208,-0.36143 0.77708,-0.36143 0.77708,-1.3373 0,-0.86743 -0.65058,-1.228865 -0.65057,-0.379503 -1.86137,-0.379503 z m 0,-2.150516 h 1.37344 q 1.30115,0 1.86137,-0.325288 0.56022,-0.343359 0.56022,-1.084293 0,-0.759006 -0.57829,-1.066222 -0.57829,-0.307217 -1.69873,-0.307217 -0.36143,0 -0.77708,0.01807 -0.41564,0 -0.74093,0.03614 z"
           style="font-weight:bold;letter-spacing:0px;fill:#333333;stroke-width:0.45178899"
           id="path1689"
           inkscape:connector-curvature="0" />
        <path
           d="M 111.74458,105.03143 V 92.507842 h 8.45749 v 2.367374 h -5.63832 v 2.457733 h 5.00582 v 2.313159 h -5.00582 v 3.017952 h 6.05397 v 2.36737 z"
           style="font-weight:bold;letter-spacing:0px;fill:#333333;stroke-width:0.45178899"
           id="path1691"
           inkscape:connector-curvature="0" />
        <path
           d="m 126.35487,92.36327 q 2.81917,0 4.31911,1.012007 1.49994,0.993936 1.49994,3.108308 0,1.319224 -0.61444,2.150516 -0.59636,0.81322 -1.73487,1.283081 0.37951,0.469858 0.79515,1.084298 0.41565,0.59636 0.81322,1.265 0.41565,0.65058 0.79515,1.37344 0.3795,0.70479 0.70479,1.39151 h -3.16252 q -0.34336,-0.61443 -0.70479,-1.24693 -0.34336,-0.63251 -0.72286,-1.22887 -0.36143,-0.59636 -0.72287,-1.12044 -0.36143,-0.54214 -0.72286,-0.97586 h -1.39151 v 4.5721 h -2.81916 V 92.688558 q 0.92165,-0.180716 1.89751,-0.253002 0.99394,-0.07229 1.77101,-0.07229 z m 0.16265,2.403517 q -0.30722,0 -0.56022,0.01807 -0.23493,0.01807 -0.45179,0.03614 v 3.397453 h 0.79515 q 1.5903,0 2.27702,-0.397574 0.68672,-0.397575 0.68672,-1.355367 0,-0.92165 -0.70479,-1.301153 -0.68672,-0.397574 -2.04209,-0.397574 z"
           style="font-weight:bold;letter-spacing:0px;fill:#333333;stroke-width:0.45178899"
           id="path1693"
           inkscape:connector-curvature="0" />
        <path
           d="m 142.14885,105.03143 q -0.3795,-0.61443 -0.90358,-1.31922 -0.506,-0.72286 -1.12043,-1.42765 -0.59636,-0.72287 -1.24694,-1.37344 -0.65058,-0.66865 -1.30115,-1.174654 v 5.294964 h -2.81917 V 92.507842 h 2.81917 v 4.734749 q 1.10236,-1.15658 2.20473,-2.403518 1.12043,-1.265009 2.07823,-2.331231 h 3.34324 q -1.28309,1.518011 -2.58424,2.927593 -1.28308,1.409581 -2.71073,2.837235 1.49994,1.246937 2.89145,2.96374 1.40958,1.71679 2.69266,3.79502 z"
           style="font-weight:bold;letter-spacing:0px;fill:#333333;stroke-width:0.45178899"
           id="path1695"
           inkscape:connector-curvature="0" />
        <path
           d="m 155.95524,105.03143 q -0.19879,-0.65057 -0.45179,-1.33729 -0.23493,-0.68672 -0.46986,-1.37344 h -4.87932 q -0.23493,0.68672 -0.48793,1.37344 -0.23493,0.68672 -0.43372,1.33729 h -2.92759 q 0.70479,-2.02401 1.33729,-3.74081 0.63251,-1.716798 1.22887,-3.234809 0.61443,-1.518011 1.19272,-2.873378 0.59636,-1.373439 1.22887,-2.674591 h 2.69266 q 0.61443,1.301152 1.2108,2.674591 0.59636,1.355367 1.19272,2.873378 0.61443,1.518011 1.24694,3.234809 0.6325,1.7168 1.33729,3.74081 z m -3.37938,-9.686353 q -0.0904,0.271073 -0.27107,0.740934 -0.18072,0.469861 -0.41565,1.084294 -0.23493,0.614433 -0.52407,1.355367 -0.27108,0.740933 -0.56022,1.554158 h 3.56009 q -0.28914,-0.813225 -0.56021,-1.554158 -0.27108,-0.740934 -0.52408,-1.355367 -0.23493,-0.614433 -0.41564,-1.084294 -0.18072,-0.469861 -0.28915,-0.740934 z"
           style="font-weight:bold;letter-spacing:0px;fill:#333333;stroke-width:0.45178899"
           id="path1697"
           inkscape:connector-curvature="0" />
        <path
           d="m 168.14818,92.507842 h 2.81916 v 12.523588 h -2.81916 v -5.313036 h -4.73475 v 5.313036 h -2.81916 V 92.507842 h 2.81916 v 4.788963 h 4.73475 z"
           style="font-weight:bold;letter-spacing:0px;fill:#333333;stroke-width:0.45178899"
           id="path1699"
           inkscape:connector-curvature="0" />
      </g>
    </g>
    <path
       inkscape:connector-curvature="0"
       id="path914"
       d="m 1157.8711,97.5 c -8.2266,0 -14.4947,0.899594 -19.1484,4.16992 -4.6538,3.27033 -6.7207,8.87377 -6.7207,15.61914 v 18.91797 a 3.5751799,3.5751799 0 1 0 7.1484,0 v -18.91797 c 0,-5.4912 1.1538,-7.99181 3.6836,-9.76953 2.5297,-1.77772 7.4084,-2.86914 15.0371,-2.86914 h 186.5332 c 4.3175,0 7.4644,0.95859 9.3535,2.43945 1.8891,1.48086 2.9473,3.4668 2.9473,7.16016 v 67.62695 c 0,5.20248 -1.3635,8.91957 -3.7031,11.37696 -2.3396,2.45738 -5.8682,3.96484 -11.3008,3.96484 H 1186.918 a 3.575195,3.575195 0 1 0 0,7.15039 h 154.7832 c 6.8361,0 12.5977,-2.10541 16.4804,-6.18359 3.8827,-4.07818 5.6739,-9.81981 5.6739,-16.3086 V 114.25 c 0,-5.3349 -2.0509,-9.93794 -5.6856,-12.78711 C 1354.5353,98.613726 1349.7448,97.5 1344.4043,97.5 Z"
       style="color:#000000;font-style:normal;font-variant:normal;font-weight:normal;font-stretch:normal;font-size:medium;line-height:normal;font-family:sans-serif;font-variant-ligatures:normal;font-variant-position:normal;font-variant-caps:normal;font-variant-numeric:normal;font-variant-alternates:normal;font-feature-settings:normal;text-indent:0;text-align:start;text-decoration:none;text-decoration-line:none;text-decoration-style:solid;text-decoration-color:#000000;letter-spacing:normal;word-spacing:normal;text-transform:none;writing-mode:lr-tb;direction:ltr;text-orientation:mixed;dominant-baseline:auto;baseline-shift:baseline;text-anchor:start;white-space:normal;shape-padding:0;clip-rule:nonzero;display:inline;overflow:visible;visibility:visible;opacity:1;isolation:auto;mix-blend-mode:normal;color-interpolation:sRGB;color-interpolation-filters:linearRGB;solid-color:#000000;solid-opacity:1;vector-effect:none;fill:#333333;fill-opacity:1;fill-rule:nonzero;stroke:none;stroke-width:7.14964485;stroke-linecap:round;stroke-linejoin:miter;stroke-miterlimit:4;stroke-dasharray:none;stroke-dashoffset:0;stroke-opacity:1;color-rendering:auto;image-rendering:auto;shape-rendering:auto;text-rendering:auto;enable-background:accumulate" />
    <path
       inkscape:connector-curvature="0"
       style="opacity:1;fill:#333333;fill-opacity:1;stroke:none;stroke-width:3.56347084;stroke-miterlimit:4;stroke-dasharray:2.83295917, 0.23607992;stroke-dashoffset:0"
       d="m 1133.6337,132.25456 v 0.67536 a 9.6808946,9.6808946 0 0 0 -7.603,8.10018 h -0.6113 v 0.95573 h 0.5124 19.3253 0.5129 v -0.95573 h -0.6022 a 9.6808946,9.6808946 0 0 0 -7.6126,-8.09282 v -0.68272 z"
       id="path916" />
  </g>
</svg>
